<svg width="121" height="22" viewBox="0 0 121 22" preserveAspectRatio="xMinYMid" xmlns="http://www.w3.org/2000/svg"><path fill-rule="evenodd" clip-rule="evenodd" d="M31 10.101h2.164V0H31v10.101zm-30.104.827v-.058C.896 5.09 5.216.304 11.23.304c3.707 0 5.925 1.313 7.969 3.24l-1.576 1.693c-1.723-1.635-3.65-2.802-6.422-2.802-4.525 0-7.91 3.678-7.91 8.377v.058c0 4.728 3.415 8.435 7.91 8.435 2.8 0 4.64-1.08 6.596-2.948l1.518 1.489c-2.13 2.16-4.466 3.59-8.172 3.59-5.897 0-10.246-4.641-10.246-10.508z"/><path fill-rule="evenodd" clip-rule="evenodd" d="M36.526 1.085c3.893 1.595 6.31 5.441 6.31 9.727v.059c0 5.633-4.234 10.566-10.45 10.566-6.217 0-10.39-4.875-10.39-10.509v-.057c0-4.268 2.427-8.133 6.307-9.757l.615 2.092c-2.764 1.325-4.53 4.226-4.53 7.606v.059c0 4.641 3.386 8.435 8.056 8.435 4.67 0 7.997-3.736 7.997-8.378v-.057c0-3.366-1.779-6.286-4.539-7.637l.624-2.149zm13.631 1.7v16.17h4.787c5.166 0 8.465-3.502 8.465-8.027v-.058c0-4.524-3.299-8.085-8.465-8.085h-4.787zM47.851.655h7.093c6.421 0 10.858 4.407 10.858 10.157v.058c0 5.75-4.437 10.216-10.858 10.216h-7.093V.654zm23.171 20.431h2.306V.654h-2.306v20.432zM79.456.654h2.159l12.872 16.374V.654h2.248v20.432h-1.84L81.704 4.332v16.754h-2.247V.654zm22.295 10.274v-.058c0-5.604 4.116-10.566 10.245-10.566 3.444 0 5.575.993 7.618 2.714l-1.489 1.752c-1.575-1.372-3.326-2.335-6.216-2.335-4.524 0-7.764 3.823-7.764 8.377v.058c0 4.875 3.123 8.494 8.085 8.494 2.335 0 4.495-.905 5.895-2.043v-5.08h-6.216V10.17h8.435v8.143a12.375 12.375 0 0 1-8.201 3.123c-6.421 0-10.392-4.67-10.392-10.508z"/></svg>