<svg width="145" height="35" viewBox="0 0 145 35" preserveAspectRatio="xMinYMid" xmlns="http://www.w3.org/2000/svg"><path fill-rule="evenodd" clip-rule="evenodd" d="M5.008 3.79C5.701 2.383 6.8 1.68 8.3 1.68c1.385 0 2.365.491 2.943 1.474.577.986.867 2.717.867 5.194 0 .614-.004 1.088-.012 1.421-.006.337-.018.652-.032.941H3.862c.072-3.207.454-5.515 1.146-6.92zm7.641 16.696c-1.048 1.112-2.282 1.666-3.697 1.666-1.818 0-3.144-.67-3.975-2.012-.832-1.342-1.246-3.477-1.246-6.407 0-.26.004-.547.011-.859.006-.31.034-.8.077-1.469H15.63c-.088-3.117-.81-5.633-2.17-7.548C12.1 1.942 10.391.983 8.34.983a6.32 6.32 0 0 0-2.693.587c-.838.392-1.607.98-2.3 1.761C2.26 4.564 1.451 5.882.917 7.29.38 8.693.112 10.201.112 11.811c0 3.16.818 5.802 2.452 7.933C4.2 21.875 6.226 22.94 8.642 22.94c1.764 0 3.256-.612 4.47-1.835 1.215-1.223 2.018-2.928 2.41-5.114h-.74c-.376 1.887-1.087 3.384-2.133 4.495zm7.196-6.625c.64 2.598 1.612 4.637 2.924 6.116 1.31 1.481 2.787 2.221 4.424 2.221 1.116 0 2.054-.393 2.816-1.177.761-.785 1.141-1.75 1.141-2.898 0-1.876-1.965-3.818-5.893-5.823a1.649 1.649 0 0 1-.195-.108c-2.318-1.2-3.775-2.198-4.37-2.986-.594-.789-.89-1.778-.89-2.966 0-1.52.492-2.776 1.478-3.768.985-.99 2.21-1.489 3.673-1.489.812 0 1.61.201 2.392.605.782.401 1.543 1.01 2.282 1.828l2.363-1.97h.085v7.782h-.472c-.537-2.299-1.409-4.124-2.62-5.476-1.208-1.35-2.553-2.027-4.032-2.027-.869 0-1.589.256-2.16.77-.574.513-.859 1.16-.859 1.94 0 1.592 1.485 3.124 4.457 4.598.217.102.377.182.478.24 2.474 1.235 4.13 2.368 4.97 3.401.84 1.032 1.26 2.31 1.26 3.835 0 1.831-.564 3.361-1.685 4.588-1.122 1.228-2.517 1.843-4.18 1.843a5.87 5.87 0 0 1-2.858-.747c-.903-.496-1.733-1.214-2.485-2.15l-2.044 2.432h-.507v-8.614h.507zm22.249-3.475c0-2.37.548-4.415 1.641-6.132 1.094-1.717 2.358-2.575 3.793-2.575 1.346 0 2.307.674 2.88 2.026.572 1.35.857 3.754.857 7.21 0 4.151-.297 7.063-.89 8.732-.595 1.671-1.587 2.506-2.976 2.506-1.408 0-2.643-.829-3.708-2.49-1.066-1.66-1.597-3.636-1.597-5.927v-3.35zm0 7.692c.624 1.662 1.41 2.923 2.36 3.784.95.86 2.033 1.288 3.252 1.288.798 0 1.61-.272 2.438-.815.825-.544 1.556-1.286 2.195-2.228a15.21 15.21 0 0 0 1.98-4.076c.433-1.414.653-2.902.653-4.467 0-2.97-.704-5.442-2.11-7.412-1.407-1.972-3.124-2.957-5.156-2.957-1.262 0-2.364.446-3.306 1.34-.943.892-1.71 2.217-2.306 3.973l-.216-4.804h-6.176V2.4h3.104v31.497h-3.104v.694h9.45v-.694h-3.058V18.078zM64.21 6.572c.52-1.85 1.212-3.242 2.073-4.182.864-.936 1.897-1.407 3.1-1.407.826 0 1.528.301 2.107.9.58.598.872 1.345.872 2.241 0 .635-.186 1.16-.557 1.57-.37.411-.857.616-1.453.616-.539 0-.98-.169-1.322-.508-.342-.337-.513-.772-.513-1.305 0-.546.161-.992.484-1.337.322-.346.732-.519 1.23-.519.237 0 .462.047.683.14.221.094.44.234.66.422-.219-.5-.53-.88-.937-1.138-.407-.259-.894-.387-1.459-.387-1.38 0-2.555.961-3.52 2.885-.967 1.922-1.449 4.35-1.449 7.28v9.846h3.15v.695h-9.54v-.695h3.1V2.19h-3.1v-.696h6.216l.174 5.08zM79.634 3.79c.693-1.407 1.791-2.11 3.291-2.11 1.386 0 2.365.491 2.943 1.474.578.986.868 2.717.868 5.194 0 .614-.003 1.088-.012 1.421-.008.337-.017.652-.032.941h-8.204c.073-3.207.455-5.515 1.146-6.92zm7.641 16.696c-1.049 1.112-2.282 1.666-3.698 1.666-1.819 0-3.142-.67-3.974-2.012-.83-1.342-1.245-3.477-1.245-6.407 0-.26.003-.547.01-.859.006-.31.033-.8.076-1.469h11.812c-.087-3.117-.81-5.633-2.17-7.548-1.36-1.915-3.069-2.874-5.123-2.874-.954 0-1.85.198-2.69.587-.839.392-1.608.98-2.3 1.761-1.087 1.233-1.897 2.551-2.432 3.958-.536 1.404-.803 2.912-.803 4.522 0 3.16.817 5.802 2.453 7.933 1.633 2.131 3.662 3.196 6.076 3.196 1.765 0 3.255-.612 4.47-1.835 1.216-1.223 2.02-2.928 2.411-5.114h-.739c-.376 1.887-1.088 3.384-2.134 4.495zm7.197-6.625c.636 2.598 1.611 4.637 2.923 6.116 1.312 1.481 2.786 2.221 4.423 2.221 1.115 0 2.055-.393 2.815-1.177.763-.785 1.144-1.75 1.144-2.898 0-1.876-1.965-3.818-5.895-5.823a1.735 1.735 0 0 1-.195-.108c-2.318-1.2-3.775-2.198-4.369-2.986-.594-.789-.889-1.778-.889-2.966 0-1.52.491-2.776 1.476-3.768.987-.99 2.211-1.489 3.676-1.489.811 0 1.607.201 2.389.605.785.401 1.543 1.01 2.282 1.828l2.363-1.97h.087v7.782h-.475c-.535-2.299-1.408-4.124-2.617-5.476-1.211-1.35-2.555-2.027-4.032-2.027-.87 0-1.588.256-2.16.77-.574.513-.859 1.16-.859 1.94 0 1.592 1.484 3.124 4.456 4.598.217.102.376.182.478.24 2.473 1.235 4.13 2.368 4.968 3.401.84 1.032 1.261 2.31 1.261 3.835 0 1.831-.562 3.361-1.685 4.588-1.121 1.228-2.515 1.843-4.179 1.843a5.878 5.878 0 0 1-2.859-.747c-.902-.496-1.73-1.214-2.484-2.15l-2.043 2.432h-.507v-8.614h.507zm17.522 0c.637 2.598 1.612 4.637 2.923 6.116 1.311 1.481 2.787 2.221 4.424 2.221 1.117 0 2.054-.393 2.816-1.177.761-.785 1.142-1.75 1.142-2.898 0-1.876-1.964-3.818-5.894-5.823a1.499 1.499 0 0 1-.195-.108c-2.319-1.2-3.776-2.198-4.369-2.986-.594-.789-.89-1.778-.89-2.966 0-1.52.492-2.776 1.478-3.768.984-.99 2.21-1.489 3.673-1.489.813 0 1.608.201 2.391.605.783.401 1.542 1.01 2.282 1.828l2.363-1.97h.087v7.782h-.474c-.536-2.299-1.408-4.124-2.617-5.476-1.212-1.35-2.555-2.027-4.035-2.027-.868 0-1.589.256-2.16.77-.572.513-.857 1.16-.857 1.94 0 1.592 1.483 3.124 4.455 4.598.218.102.377.182.478.24 2.475 1.235 4.131 2.368 4.971 3.401.837 1.032 1.257 2.31 1.257 3.835 0 1.831-.56 3.361-1.682 4.588-1.121 1.228-2.516 1.843-4.179 1.843a5.867 5.867 0 0 1-2.859-.747c-.905-.496-1.733-1.214-2.485-2.15l-2.044 2.432h-.507v-8.614h.507zm28.217-9.95c.682 1.488 1.025 4.165 1.025 8.027 0 3.908-.338 6.593-1.016 8.06-.677 1.467-1.843 2.2-3.498 2.2-1.658 0-2.824-.733-3.503-2.2-.678-1.467-1.015-4.152-1.015-8.06 0-3.89.337-6.575 1.015-8.048.679-1.474 1.845-2.21 3.503-2.21 1.64 0 2.804.743 3.489 2.231zm-9.294.258c-1.613 2.123-2.417 4.714-2.417 7.77 0 3.058.804 5.656 2.417 7.795 1.612 2.136 3.547 3.206 5.805 3.206 2.239 0 4.171-1.07 5.79-3.206 1.619-2.139 2.43-4.737 2.43-7.795 0-3.056-.811-5.647-2.44-7.77-1.626-2.123-3.555-3.186-5.78-3.186-2.258 0-4.193 1.063-5.805 3.186z"/></svg>