<svg xmlns="http://www.w3.org/2000/svg" viewBox="0 0 652.75 72.73"><path d="M0 1.4h56.14v16.48H19.08v10.59h33.57v15.29H19.08v11.09h37.56v16.48H0V1.4zm93.99 53.26L83.32 71.33H61.54l21.79-32.31zM131.47 1.4l-20.76 30.88-10.68-15.66 9.66-15.22zm1 69.93L84.82 1.4H62.54l47.65 69.93zm35.86-35.17c3.46 0 6.17-.82 8.14-2.46 1.97-1.64 2.95-3.87 2.95-6.68v-.2c0-3.01-.98-5.31-2.95-6.88-1.97-1.57-4.71-2.36-8.24-2.36h-9.09v18.58h9.19zM139.76 1.4h29.97c4.4 0 8.39.55 11.99 1.65 3.6 1.1 6.66 2.7 9.19 4.8 2.53 2.1 4.48 4.68 5.85 7.74 1.37 3.06 2.04 6.53 2.04 10.39v.2c0 4.13-.75 7.76-2.24 10.89-1.5 3.13-3.58 5.76-6.25 7.89-2.66 2.13-5.84 3.73-9.54 4.79-3.69 1.07-7.7 1.6-12.03 1.6h-9.59v19.98h-19.38V1.4h-.01zm67.23 0h56.15v16.48h-37.06v10.59h33.56v15.29h-33.56v11.09h37.56v16.48h-56.65V1.4zm98.81 33.57c3.32 0 5.89-.75 7.69-2.25 1.8-1.5 2.7-3.51 2.7-6.04v-.2c0-2.8-.93-4.88-2.79-6.24-1.87-1.36-4.43-2.05-7.69-2.05h-12.68v16.78h12.77zM273.63 1.4h33.06c5.39 0 9.96.67 13.69 2 3.73 1.33 6.76 3.2 9.09 5.59 4.13 4 6.19 9.42 6.19 16.28v.2c0 5.39-1.3 9.86-3.9 13.39-2.59 3.53-6.09 6.23-10.49 8.09l16.69 24.38h-22.38L301.5 50.15h-8.49v21.18h-19.38V1.4zm72.23 0h19.48v69.93h-19.48V1.4zm32.27 0h56.14v16.48h-37.06v10.59h33.57v15.29h-33.57v11.09h37.56v16.48h-56.64V1.4zm66.63 0h18.12l28.83 36.96V1.4h19.08v69.93h-17.02l-29.92-38.36v38.36h-19.09V1.4zm112.09 71.33c-4.99 0-9.69-.9-14.08-2.7-4.4-1.8-8.21-4.31-11.44-7.54-3.23-3.23-5.8-7.06-7.69-11.49-1.9-4.43-2.84-9.24-2.84-14.44v-.2c0-5.06.93-9.81 2.79-14.24 1.86-4.43 4.43-8.29 7.69-11.59 3.26-3.3 7.14-5.88 11.64-7.74 4.5-1.86 9.41-2.8 14.74-2.8 3.6 0 6.86.35 9.79 1.05 2.94.7 5.62 1.7 8.05 3 2.43 1.3 4.63 2.85 6.6 4.65 1.96 1.8 3.71 3.76 5.24 5.89l-14.58 11.29c-2-2.53-4.2-4.53-6.6-5.99-2.4-1.46-5.3-2.2-8.69-2.2-2.46 0-4.71.48-6.74 1.45-2.04.97-3.79 2.28-5.25 3.95-1.47 1.67-2.62 3.63-3.44 5.89-.83 2.27-1.25 4.66-1.25 7.19v.2c0 2.6.42 5.05 1.25 7.34.82 2.3 1.98 4.28 3.44 5.94 1.46 1.67 3.21 2.98 5.25 3.95 2.03.97 4.28 1.45 6.74 1.45 1.79 0 3.44-.2 4.95-.6 1.49-.4 2.86-.98 4.1-1.75 1.23-.76 2.4-1.66 3.5-2.7 1.1-1.03 2.18-2.18 3.25-3.45l14.59 10.39a53.172 53.172 0 0 1-5.44 6.29 31.17 31.17 0 0 1-6.7 4.99c-2.5 1.4-5.29 2.5-8.39 3.3-3.14.82-6.62 1.22-10.48 1.22zM596.11 1.4h56.15v16.48h-37.07v10.59h33.57v15.29h-33.57v11.09h37.56v16.48h-56.64V1.4z"/></svg>