<svg width="170" height="50" viewBox="0 0 170 50" xmlns="http://www.w3.org/2000/svg" xmlns:xlink="http://www.w3.org/1999/xlink" preserveAspectRatio="xMinYMid"><defs><path d="M3.384 22H2.016V5.992h6c3.072 0 4.824 2.16 4.824 4.68 0 2.52-1.776 4.68-4.824 4.68H3.384V22zm4.488-7.896c2.112 0 3.528-1.416 3.528-3.432S9.984 7.24 7.872 7.24H3.384v6.864h4.488zM26.76 22h-1.656l-4.488-6.624h-3.528V22H15.72V5.992h5.976c2.76 0 4.872 1.752 4.872 4.68 0 2.904-2.064 4.512-4.44 4.608L26.76 22zm-5.184-7.872c2.112 0 3.552-1.44 3.552-3.456s-1.44-3.432-3.552-3.432h-4.488v6.888h4.488zm15.576 8.16c-4.704 0-7.776-3.6-7.776-8.28s3.072-8.28 7.776-8.28c4.68 0 7.776 3.6 7.776 8.28s-3.096 8.28-7.776 8.28zm0-1.248c3.84 0 6.336-3 6.336-7.032 0-4.08-2.496-7.032-6.336-7.032-3.888 0-6.336 2.952-6.336 7.032 0 4.032 2.448 7.032 6.336 7.032zM49.68 22h-1.368V5.992h10.152V7.24H49.68v5.928h8.616v1.248H49.68V22zm21.792 0H61.32V5.992h10.152V7.24h-8.784v5.928h8.616v1.248h-8.616v6.336h8.784V22zm8.352.288c-2.64 0-4.632-1.056-5.856-2.544l.888-1.032c1.032 1.2 2.712 2.328 4.992 2.328 3.288 0 4.224-1.824 4.224-3.192 0-4.704-9.6-2.256-9.6-7.848 0-2.616 2.352-4.272 5.256-4.272 2.4 0 4.176.84 5.424 2.256l-.912 1.008c-1.152-1.392-2.784-2.016-4.584-2.016-2.136 0-3.744 1.224-3.744 2.952 0 4.104 9.6 1.848 9.6 7.824 0 2.064-1.368 4.536-5.688 4.536zm13.944 0c-2.64 0-4.632-1.056-5.856-2.544l.888-1.032c1.032 1.2 2.712 2.328 4.992 2.328 3.288 0 4.224-1.824 4.224-3.192 0-4.704-9.6-2.256-9.6-7.848 0-2.616 2.352-4.272 5.256-4.272 2.4 0 4.176.84 5.424 2.256l-.912 1.008C97.032 7.6 95.4 6.976 93.6 6.976c-2.136 0-3.744 1.224-3.744 2.952 0 4.104 9.6 1.848 9.6 7.824 0 2.064-1.368 4.536-5.688 4.536zM104.112 22h-1.368V5.992h1.368V22zm11.16.288c-4.704 0-7.776-3.6-7.776-8.28s3.072-8.28 7.776-8.28c4.68 0 7.776 3.6 7.776 8.28s-3.096 8.28-7.776 8.28zm0-1.248c3.84 0 6.336-3 6.336-7.032 0-4.08-2.496-7.032-6.336-7.032-3.888 0-6.336 2.952-6.336 7.032 0 4.032 2.448 7.032 6.336 7.032zm23.952.96h-1.344L127.8 8.248V22h-1.368V5.992h1.392l10.032 13.56V5.992h1.368V22zm17.16 0H154.8l-1.584-3.936h-8.472L143.16 22h-1.584l6.552-16.008h1.704L156.384 22zm-3.624-5.184l-3.792-9.36-3.768 9.36h7.56zM167.856 22h-9.12V5.992h1.368v14.76h7.752V22z" id="a"/><path d="M11.76 42.592H1.584V26.584h3.408v13.008h6.768v3zm13.704 0H14.136V26.584h11.328v3h-7.92v3.384h7.752v3h-7.752v3.624h7.92v3zm17.592 0h-3.888l-.984-2.712H31.32l-1.008 2.712h-3.888l6.192-16.008h4.272l6.168 16.008zm-5.808-5.712l-2.496-6.888-2.496 6.888h4.992zm20.256 5.712h-3.912l-3.144-5.688h-2.496v5.688h-3.408V26.584h7.488c3.336 0 5.376 2.184 5.376 5.16 0 2.832-1.776 4.344-3.504 4.752l3.6 6.096zm-5.976-8.688c1.368 0 2.4-.816 2.4-2.16 0-1.344-1.032-2.16-2.4-2.16h-3.576v4.32h3.576zm22.776 8.688h-3.288l-7.632-10.44v10.44h-3.408V26.584h3.504l7.416 10.056V26.584h3.408v16.008zm6.576 0h-3.408V26.584h3.408v16.008zm17.496 0h-3.288l-7.632-10.44v10.44h-3.408V26.584h3.504l7.416 10.056V26.584h3.408v16.008zm10.92.312c-4.68 0-8.52-3.264-8.52-8.304 0-5.064 3.84-8.28 8.52-8.28 3.336 0 5.424 1.68 6.624 3.576l-2.832 1.536c-.72-1.128-2.088-2.088-3.792-2.088-2.904 0-5.016 2.232-5.016 5.256s2.112 5.256 5.016 5.256c1.416 0 2.76-.624 3.408-1.224v-1.92h-4.224v-2.976h7.632v6.144c-1.632 1.824-3.912 3.024-6.816 3.024z" id="b"/></defs><g fill-rule="evenodd"><use xlink:href="#a"/><use xlink:href="#a"/><use xlink:href="#b"/><use xlink:href="#b"/></g></svg>