<svg xmlns="http://www.w3.org/2000/svg" preserveAspectRatio="xMinYMid" viewBox="0 0 125.7 19.9"><path class="st0" d="M8.2 8.9c4.3.9 6.3 2.5 6.3 5.5 0 3.3-2.7 5.5-6.6 5.5-3.1 0-5.6-1-7.9-3.1l1.3-1.6c2 1.8 3.9 2.7 6.6 2.7 2.6 0 4.3-1.3 4.3-3.3 0-1.8-1-2.8-5-3.7C2.8 9.9.7 8.5.7 5.3.7 2.2 3.4 0 7 0c2.8 0 4.8.8 6.8 2.4l-1.3 1.7C10.8 2.6 9 2 7 2 4.5 2 2.9 3.4 2.9 5.1c0 1.9 1 2.9 5.3 3.8zm20.1 11c-5.6 0-9.6-4.4-9.6-9.9s4.1-10 9.7-10c3.5 0 5.6 1.2 7.5 3l-1.5 1.6C32.8 3.1 31 2 28.4 2 24.1 2 21 5.4 21 9.9s3.2 8 7.4 8c2.6 0 4.4-1 6.2-2.8l1.4 1.4c-2 2-4.2 3.4-7.7 3.4zM42.9.3v19.2h-2.2V.3h2.2zm20.2 2H51.4v6.6h10.5v2H51.4v6.7h11.9v2h-14V.3h13.9v2zm19.3-2h2.1v19.2h-1.7L70.4 3.8v15.8h-2.1V.3h2l12.1 15.4V.3zm17.1 19.6c-5.6 0-9.6-4.4-9.6-9.9S94 0 99.6 0c3.5 0 5.6 1.2 7.5 3l-1.5 1.6c-1.6-1.5-3.4-2.6-6-2.6-4.3 0-7.4 3.4-7.4 7.9s3.2 8 7.4 8c2.6 0 4.4-1 6.2-2.8l1.4 1.4c-2 2-4.2 3.4-7.7 3.4zm26-17.6h-11.7v6.6h10.5v2h-10.5v6.7h11.9v2h-14V.3h13.9v2z"/></svg>