<svg data-name="Layer 1" xmlns="http://www.w3.org/2000/svg" viewBox="0 0 109.21 29.29"><path fill="var(--color-one)" class="cls-1" d="M.82 11.52l.75-.89a5.15 5.15 0 0 0 3.7 1.52c1.44 0 2.4-.77 2.4-1.83 0-1-.54-1.57-2.8-2C2.39 7.7 1.25 6.9 1.25 5.13c0-1.69 1.49-2.94 3.54-2.94a5.63 5.63 0 0 1 3.79 1.29l-.71.94a4.76 4.76 0 0 0-3.11-1.17c-1.4 0-2.3.77-2.3 1.74V5c0 1 .56 1.59 2.93 2.1s3.51 1.4 3.51 3c0 1.84-1.54 3-3.68 3a6.31 6.31 0 0 1-4.4-1.58zm13.1-8.08H10.3V2.31h8.47v1.13h-3.62v9.65h-1.23zM21 2.31h4.64a4.22 4.22 0 0 1 3.06 1.08 3 3 0 0 1 .83 2.13 3.16 3.16 0 0 1-2.92 3.14l3.31 4.4H28.4L25.27 8.9h-3.08v4.19H21zm4.53 5.5c1.62 0 2.77-.83 2.77-2.22 0-1.32-1-2.12-2.75-2.12h-3.36v4.34zM32 2.31h7.79v1.11h-6.54V7.1h5.88v1.11h-5.88V12h6.65v1.11H32zm14.26-.07h1.14l4.91 10.85H51l-1.26-2.85h-5.87l-1.27 2.85h-1.25zm3 6.91l-2.45-5.5-2.46 5.5zm5.1-6.84h1.23l3.93 5.88 3.93-5.88h1.23v10.78h-1.22V4.36l-3.93 5.77h-.06l-3.92-5.75v8.71h-1.19zm13.4 0H69v10.78h-1.24zm4.3 0h1.13L80 11V2.31h1.19v10.78h-1l-7-8.84v8.84h-1.13zm11.61 5.42a5.41 5.41 0 0 1 5.4-5.57 5.67 5.67 0 0 1 4 1.43l-.79.92A4.58 4.58 0 0 0 89 3.25a4.21 4.21 0 0 0-4.1 4.42 4.16 4.16 0 0 0 4.26 4.48 5 5 0 0 0 3.14-1.05V8.42H89V7.33h4.44v4.3a6.54 6.54 0 0 1-4.32 1.64 5.28 5.28 0 0 1-5.45-5.54z"/><path fill="var(--color-two)" d="M1.51 17.52h9.26v2.72H4.66v1.74h5.54v2.53H4.66v1.83h6.2v2.71H1.51V17.52zm27.77 5.73a2.07 2.07 0 0 0 1.35-.4 1.37 1.37 0 0 0 .48-1.1 1.36 1.36 0 0 0-.48-1.13 2.14 2.14 0 0 0-1.36-.39h-1.5v3.06zm-4.71-5.73h4.94a6.77 6.77 0 0 1 2 .27 4.22 4.22 0 0 1 1.52.79 3.38 3.38 0 0 1 1 1.28 4 4 0 0 1 .34 1.71 4 4 0 0 1-.37 1.8 3.65 3.65 0 0 1-1 1.3 4.4 4.4 0 0 1-1.57.8 7.42 7.42 0 0 1-2 .26h-1.66v3.3h-3.2V17.52zm11.09 0h9.27v2.72h-6.12v1.74h5.54v2.53h-5.54v1.83h6.2v2.71h-9.35V17.52zM52 23.06a1.9 1.9 0 0 0 1.26-.38 1.2 1.2 0 0 0 .45-1 1.19 1.19 0 0 0-.46-1 2.15 2.15 0 0 0-1.25-.39h-2.14v2.77zm-5.31-5.54h5.45a6.74 6.74 0 0 1 2.26.33 3.74 3.74 0 0 1 1.5.92 3.56 3.56 0 0 1 1 2.69 3.62 3.62 0 0 1-.64 2.21A4 4 0 0 1 54.52 25l2.75 4h-3.69l-2.32-3.5h-1.4V29h-3.2V17.52zm11.89 0h3.21v11.53h-3.21V17.52zm5.32 0h9.26v2.72h-6.11v1.74h5.54v2.53h-5.54v1.83h6.2v2.71H63.9V17.52zm10.99 0h2.99l4.76 6.1v-6.1h3.15v11.53h-2.81l-4.94-6.32v6.32h-3.15V17.52zm18.5 11.77a6 6 0 0 1-2.33-.45 5.75 5.75 0 0 1-1.88-1.24 5.92 5.92 0 0 1-1.27-1.9 5.85 5.85 0 0 1-.47-2.38A6 6 0 0 1 89.17 19a5.77 5.77 0 0 1 1.92-1.28 6.22 6.22 0 0 1 2.43-.46 6.83 6.83 0 0 1 1.62.17 5.46 5.46 0 0 1 1.32.49 5.34 5.34 0 0 1 1.09.77 7.27 7.27 0 0 1 .87 1L96 21.56a4 4 0 0 0-1.09-1 2.85 2.85 0 0 0-2.55-.13 2.75 2.75 0 0 0-.86.65 3.16 3.16 0 0 0-.57 1 3.33 3.33 0 0 0-.21 1.18 3.5 3.5 0 0 0 .21 1.21 3.16 3.16 0 0 0 .57 1 2.75 2.75 0 0 0 .86.65 2.59 2.59 0 0 0 1.12.24 3 3 0 0 0 .81-.1A2.45 2.45 0 0 0 95 26a3.86 3.86 0 0 0 .58-.44 5.85 5.85 0 0 0 .53-.57l2.41 1.71a9.08 9.08 0 0 1-.9 1 5 5 0 0 1-1.1.82 5.52 5.52 0 0 1-1.39.55 6.94 6.94 0 0 1-1.72.2zm6.48-11.77h9.26v2.72h-6.11v1.74h5.53v2.53h-5.53v1.83h6.19v2.71h-9.34V17.52z"/><path fill="var(--color-three)" class="cls-2" d="M17.02 26.3l-1.76 2.76h-3.6l3.6-5.33 1.76 2.57zm6.18-8.78l-3.42 5.09-1.77-2.58 1.6-2.51h3.59zm.17 11.54L15.5 17.52h-3.67l7.86 11.54h3.68z"/></svg>