<svg width="24" height="24" viewBox="0 0 24 24" xmlns="http://www.w3.org/2000/svg"><g clip-path="url(#a)"><path d="M19.973 10.296A4.896 4.896 0 0 1 24 14.953c0 2.625-2.142 4.741-4.798 4.741a.945.945 0 0 1-.943-.931v-7.62c0-3.388-2.913-6.182-6.34-6.182-3.513 0-6.34 2.794-6.34 6.181v7.62a.945.945 0 0 1-.943.932c-1.285-.084-2.485-.592-3.342-1.524-.856-.931-1.37-2.117-1.285-3.387.086-2.201 1.628-3.98 3.685-4.487a8.122 8.122 0 0 1 8.568-7.282c4.112.254 7.283 3.302 7.711 7.282z"/><path d="M19.973 10.296A4.896 4.896 0 0 1 24 14.953c0 2.625-2.142 4.741-4.798 4.741a.945.945 0 0 1-.943-.931v-7.62c0-3.388-2.913-6.182-6.34-6.182-3.513 0-6.34 2.794-6.34 6.181v7.62a.945.945 0 0 1-.943.932c-1.285-.084-2.485-.592-3.342-1.524-.856-.931-1.37-2.117-1.285-3.387.086-2.201 1.628-3.98 3.685-4.487a8.122 8.122 0 0 1 8.568-7.282c4.112.254 7.283 3.302 7.711 7.282z"/><path d="M15.32 11.354l-3.216 1.61a.194.194 0 0 1-.09.021.194.194 0 0 1-.092-.021l-3.217-1.61a.198.198 0 0 1-.088-.268.203.203 0 0 1 .271-.088l3.13 1.566 3.128-1.566a.202.202 0 0 1 .277.063.197.197 0 0 1-.102.293zm-3.516 5.12v-3.021l-3.733-1.845a.202.202 0 0 0-.292.178v6.167c0 .076.045.145.115.178l3.913 1.93v-2.857l-.003-.73zm.403 3.586l3.913-1.93a.198.198 0 0 0 .115-.179v-6.166a.198.198 0 0 0-.1-.171.203.203 0 0 0-.195-.01l-3.733 1.846v6.61z"/><path d="M15.32 11.354l-3.216 1.61a.194.194 0 0 1-.09.021.194.194 0 0 1-.092-.021l-3.217-1.61a.198.198 0 0 1-.088-.268.203.203 0 0 1 .271-.088l3.13 1.566 3.128-1.566a.202.202 0 0 1 .277.063.197.197 0 0 1-.102.293zm-3.516 5.12v-3.021l-3.733-1.845a.202.202 0 0 0-.292.178v6.167c0 .076.045.145.115.178l3.913 1.93v-2.857l-.003-.73zm.403 3.586l3.913-1.93a.198.198 0 0 0 .115-.179v-6.166a.198.198 0 0 0-.1-.171.203.203 0 0 0-.195-.01l-3.733 1.846v6.61z"/></g><defs><clipPath id="a"><path d="M0 0h24v24H0z"/></clipPath></defs></svg>