<svg xmlns="http://www.w3.org/2000/svg" width="32" height="32" viewBox="0 0 32 32"><path d="M32 24v2.286q0 .464-.339.804t-.804.339H1.143q-.464 0-.804-.339T0 26.286V24q0-.464.339-.804t.804-.339h29.714q.464 0 .804.339T32 24zm-6.857-6.857v2.286q0 .464-.339.804t-.804.339H1.143q-.464 0-.804-.339T0 19.429v-2.286q0-.464.339-.804T1.143 16H24q.464 0 .804.339t.339.804zm4.571-6.857v2.286q0 .464-.339.804t-.804.339H1.142q-.464 0-.804-.339t-.339-.804v-2.286q0-.464.339-.804t.804-.339h27.429q.464 0 .804.339t.339.804zm-6.857-6.857v2.286q0 .464-.339.804t-.804.339H1.143q-.464 0-.804-.339T0 5.715V3.429q0-.464.339-.804t.804-.339h20.571q.464 0 .804.339t.339.804z"/></svg>