<svg viewBox="0 0 32 32"><path d="M26.443 12.15l-2.6-2.6-11.292 11.294 2.606 2.606 11.286-11.3zm.707-.707l1.729-1.731c.39-.39.387-1.025-.005-1.416l-1.18-1.177a1 1 0 0 0-1.417-.003L24.55 8.844l2.599 2.599zM11.904 21.611l-.64 3.113 3.135-.617-2.495-2.495zM22 18v10.003A1.994 1.994 0 0 1 20.003 30H4.998a2 2 0 0 1-1.997-2.007V5.008c0-1.109.899-2.007 2.009-2.007h9.991v6.002c0 1.111.898 1.998 2.006 1.998h3.994l4.58-4.58a1.994 1.994 0 0 1 2.83-.01l1.18 1.179a2.003 2.003 0 0 1-.01 2.83L22.001 18zM16 3v5.997c0 .554.451 1.003.991 1.003H22l-6-7z"/></svg>