<svg viewBox="0 0 28 28"><path d="M25.846 8.615H2.154c-.292 0-.544.107-.757.32s-.32.465-.32.757v16.154c0 .292.107.544.32.757s.466.32.757.32h23.692c.292 0 .544-.107.757-.32s.32-.465.32-.757V9.692c0-.292-.106-.544-.32-.757s-.465-.32-.757-.32zm-8.935 5.065c-.213.213-.466.32-.757.32h-4.308c-.292 0-.544-.107-.757-.32s-.32-.466-.32-.757c0-.292.107-.544.32-.757s.466-.32.757-.32h4.308c.291 0 .544.107.757.32s.32.466.32.757c0 .292-.107.544-.32.757zm10.77-12.283a1.036 1.036 0 0 0-.757-.32H1.078c-.292 0-.544.107-.757.32s-.32.466-.32.757v4.308c0 .292.107.544.32.757s.465.32.757.32h25.846c.292 0 .544-.107.758-.32s.319-.466.319-.757V2.154c0-.292-.107-.544-.319-.757z"/></svg>