<svg width="24" height="24" viewBox="0 0 24 24" xmlns="http://www.w3.org/2000/svg"><path d="M23.963 19.469L19.23 1.794c-.138-.515-.663-.926-1.307-.754l-.644.172c-.257.07-.48.267-.669.594-.585.289-2.18.717-2.833.759-.327-.189-.62-.248-.877-.18l-.644.173c-.1.027-.175.082-.256.129v-.354C12 1.597 11.403 1 10.667 1H8c-.736 0-1.333.597-1.333 1.333V5H12l4.236 16.54c.138.514.662.926 1.306.753l.644-.172c.258-.07.48-.267.67-.593.579-.287 2.174-.717 2.833-.76.326.19.619.249.876.18l.644-.173c.644-.172.892-.791.754-1.306zm-5.6-.294L14.527 4.849l2.575-.69 3.837 14.326-2.576.69zM0 17h5.333V6.333H0V17zM4 1H1.333C.597 1 0 1.597 0 2.333V5h5.333V2.333C5.333 1.597 4.736 1 4 1zM0 21c0 .736.597 1.333 1.333 1.333H4c.736 0 1.333-.597 1.333-1.333v-2.667H0V21zm6.667-4H12V6.333H6.667V17zm0 4c0 .736.597 1.333 1.333 1.333h2.667c.736 0 1.333-.597 1.333-1.333v-2.667H6.667V21z"/></svg>