<svg viewBox="0 0 30 28"><path d="M20 13.5a.518.518 0 0 0-.141-.359l-5.5-5.5A.495.495 0 0 0 14 7.5a.518.518 0 0 0-.359.141l-5.484 5.484a.573.573 0 0 0-.156.375c0 .281.219.5.5.5h3.5v5.5c0 .266.234.5.5.5h3c.266 0 .5-.234.5-.5V14h3.5c.281 0 .5-.234.5-.5zM30 18c0 3.313-2.688 6-6 6H7c-3.859 0-7-3.141-7-7a6.98 6.98 0 0 1 4.031-6.328C4.015 10.438 4 10.219 4 10c0-4.422 3.578-8 8-8a8.013 8.013 0 0 1 7.406 4.969A3.955 3.955 0 0 1 22 6c2.203 0 4 1.797 4 4 0 .766-.219 1.516-.641 2.156A6.014 6.014 0 0 1 30 18z"/></svg>