<svg viewBox="0 0 28 28"><path d="M11.464 0H.586A.586.586 0 0 0 0 .586v10.878c0 .324.263.586.586.586h10.878a.586.586 0 0 0 .586-.586V.586A.586.586 0 0 0 11.464 0zm15.95 0H16.536a.586.586 0 0 0-.586.586v10.878c0 .324.263.586.586.586h10.878a.586.586 0 0 0 .586-.586V.586A.586.586 0 0 0 27.414 0zm-15.95 15.949H.586a.586.586 0 0 0-.586.586v10.878c0 .324.263.586.586.586h10.878a.586.586 0 0 0 .586-.586V16.535a.587.587 0 0 0-.586-.586zm15.95 0H16.536a.586.586 0 0 0-.586.586v10.878c0 .324.263.586.586.586h10.878a.586.586 0 0 0 .586-.586V16.535a.586.586 0 0 0-.586-.586z"/></svg>