<svg xmlns="http://www.w3.org/2000/svg" width="32" height="32" viewBox="0 0 32 32"><path d="M26.276 3.986c0 .536-.103 1.042-.311 1.518s-.482.896-.823 1.262a3.759 3.759 0 0 1-2.743 1.17c-.537 0-1.042-.104-1.518-.311s-.89-.494-1.243-.859c-.354-.366-.634-.786-.841-1.262s-.311-.981-.311-1.518.104-1.048.311-1.536.488-.914.841-1.28a3.84 3.84 0 0 1 4.279-.859c.475.207.884.494 1.225.859s.616.792.823 1.28c.207.488.311 1 .311 1.536zm0 12.032c0 .561-.103 1.079-.311 1.554s-.482.89-.823 1.243-.75.634-1.225.841c-.475.207-.981.311-1.518.311s-1.042-.104-1.518-.311c-.475-.207-.89-.488-1.243-.841s-.634-.768-.841-1.243a3.855 3.855 0 0 1-.311-1.554c0-.536.104-1.048.311-1.536s.488-.908.841-1.262.768-.634 1.243-.841c.475-.207.981-.311 1.518-.311s1.042.104 1.518.311c.475.207.884.488 1.225.841s.616.774.823 1.262c.207.488.311 1 .311 1.536zm-.109 12.032c0 .537-.098 1.036-.293 1.499s-.463.866-.805 1.207c-.341.341-.744.61-1.207.805s-.951.293-1.463.293c-.512 0-1-.098-1.463-.293s-.866-.463-1.207-.805a3.806 3.806 0 0 1-1.098-2.706c0-.512.098-1 .293-1.463s.463-.872.805-1.225.744-.628 1.207-.823c.463-.195.951-.293 1.463-.293s1 .098 1.463.293.866.469 1.207.823c.341.354.61.762.805 1.225s.293.951.293 1.463zM13.513 3.986c0 .536-.104 1.042-.311 1.518s-.482.896-.823 1.262-.75.652-1.225.859c-.475.207-.981.311-1.518.311s-1.042-.104-1.518-.311c-.475-.207-.89-.494-1.243-.859s-.634-.786-.841-1.262-.311-.981-.311-1.518.104-1.048.311-1.536c.207-.488.488-.914.841-1.28a3.84 3.84 0 0 1 4.279-.859c.476.207.884.494 1.225.859s.616.792.823 1.28c.207.488.311 1 .311 1.536zm0 12.032c0 .561-.104 1.079-.311 1.554s-.482.89-.823 1.243-.75.634-1.225.841c-.475.207-.981.311-1.518.311s-1.042-.104-1.518-.311c-.475-.207-.89-.488-1.243-.841s-.634-.768-.841-1.243a3.855 3.855 0 0 1-.311-1.554c0-.536.104-1.048.311-1.536s.488-.908.841-1.262.768-.634 1.243-.841.981-.311 1.518-.311 1.042.104 1.518.311.884.488 1.225.841.616.774.823 1.262c.207.488.311 1 .311 1.536zm0 12.032c0 .561-.104 1.079-.311 1.554s-.482.89-.823 1.244-.75.634-1.225.841c-.475.207-.981.311-1.518.311s-1.042-.104-1.518-.311c-.475-.207-.89-.488-1.243-.841s-.634-.768-.841-1.244a3.855 3.855 0 0 1-.311-1.554c0-.536.104-1.048.311-1.536s.488-.908.841-1.262.768-.634 1.243-.841c.475-.207.981-.311 1.518-.311s1.042.103 1.518.311c.475.207.884.488 1.225.841s.616.774.823 1.262c.207.488.311 1 .311 1.536z"/></svg>