<svg xmlns="http://www.w3.org/2000/svg" width="32" height="32" viewBox="0 0 32 32"><path d="M8.421 27.789a4.211 4.211 0 1 1-8.422 0 4.211 4.211 0 0 1 8.422 0zm0-11.789a4.211 4.211 0 1 1-8.422 0 4.211 4.211 0 0 1 8.422 0zm0-11.789a4.211 4.211 0 1 1-8.422 0 4.211 4.211 0 0 1 8.422 0zm11.79 23.578a4.211 4.211 0 1 1-8.422 0 4.211 4.211 0 0 1 8.422 0zm0-11.789a4.211 4.211 0 1 1-8.422 0 4.211 4.211 0 0 1 8.422 0zm0-11.789a4.211 4.211 0 1 1-8.422 0 4.211 4.211 0 0 1 8.422 0zM32 27.789a4.211 4.211 0 1 1-8.422 0 4.211 4.211 0 0 1 8.422 0zM32 16a4.211 4.211 0 1 1-8.422 0A4.211 4.211 0 0 1 32 16zm0-11.789a4.211 4.211 0 1 1-8.422 0 4.211 4.211 0 0 1 8.422 0z"/></svg>