<svg viewBox="0 0 28 28"><path d="M14 5.048c-4.058 0-6.989 3.024-7.454 6.273-.29 2.166.41 4.277 1.865 5.873 1.28 1.367 1.98 3.194 1.98 5.075l-.005 2.964c0 1.198.99 2.166 2.215 2.166h2.855c1.225 0 2.215-.968 2.215-2.166l.005-2.964c0-1.936.64-3.708 1.865-4.96a7.045 7.045 0 0 0 2.04-4.96c-.005-4.052-3.445-7.301-7.58-7.301zm2.559 20.185c0 .569-.465 1.028-1.05 1.028h-2.855c-.585 0-1.05-.454-1.05-1.028V23.92h4.949v1.313zm2.166-8.723c-1.455 1.482-2.215 3.533-2.215 5.759v.514h-4.949v-.514c0-2.111-.875-4.216-2.33-5.813-1.28-1.367-1.805-3.134-1.575-4.96.41-2.734 2.953-5.305 6.349-5.305 3.555 0 6.409 2.795 6.409 6.158a5.958 5.958 0 0 1-1.69 4.162zM13.415.602h1.165v2.734h-1.165V.602zm7.645 5.271l.815.815 1.996-1.92-.82-.815zm3.484 7.044h2.855v1.143h-2.855v-1.143zm-23.942 0h2.855v1.143H.602v-1.143zm4.325-8.969l-.82.815 1.996 1.92.815-.815z"/></svg>