<svg viewBox="0 0 28 28"><path d="M7.597 10.744h12.806c.499 0 .89-.391.89-.89s-.391-.89-.89-.89H7.597c-.499 0-.89.391-.89.89s.391.89.89.89zm0 4.298h12.806c.499 0 .89-.391.89-.89s-.391-.89-.89-.89H7.597c-.499 0-.89.391-.89.89s.391.89.89.89z"/><path d="M2.279 20.794h2.865v2.93c0 .347.195.651.499.803.13.065.26.087.391.087a.949.949 0 0 0 .543-.174l4.775-3.625h14.369a.88.88 0 0 0 .89-.89V4.102a.88.88 0 0 0-.89-.89H2.279a.88.88 0 0 0-.89.89v15.802c0 .499.412.89.89.89zm.89-15.802h21.64v14.022H11.048a.949.949 0 0 0-.543.174l-3.581 2.735v-2.019a.88.88 0 0 0-.89-.89H3.169V4.992z"/></svg>