<svg viewBox="0 0 28 28"><path d="M27.271 15.896h-5.177v-2.771c0-.056.017-.111.016-.167 2.631-.274 4.14-2.006 4.14-4.846v-.656a.73.73 0 0 0-1.458 0v.656c0 2.1-.93 3.217-2.837 3.4-.332-1.478-1.142-2.755-2.49-3.046a4.685 4.685 0 0 0-2.522-3.567 3.18 3.18 0 0 0 .923-2.228v-.647a.73.73 0 0 0-1.458 0v.647c0 .95-.791 1.704-1.741 1.704h-1.258c-.95 0-1.741-.755-1.741-1.704v-.647a.73.73 0 0 0-1.458 0v.647c0 .867.358 1.654.923 2.228a4.69 4.69 0 0 0-2.527 3.567c-1.351.291-2.158 1.572-2.489 3.052-1.956-.162-2.907-1.28-2.907-3.406v-.656a.73.73 0 0 0-1.458 0v.656c0 2.866 1.501 4.603 4.177 4.853-.001.053-.021.107-.021.16v2.771H.731a.729.729 0 1 0 0 1.458h5.177v1.258a8.1 8.1 0 0 0 .197 1.695c-2.786.189-4.354 1.939-4.354 4.868v.656a.73.73 0 0 0 1.458 0v-.656c0-2.286 1.102-3.407 3.367-3.426 1.228 2.91 4.11 4.957 7.461 4.957s6.233-2.047 7.461-4.956c2.216.043 3.294 1.164 3.294 3.425v.656a.73.73 0 0 0 1.458 0v-.656c0-2.904-1.576-4.649-4.318-4.863a8.07 8.07 0 0 0 .162-1.7v-1.258h5.177a.729.729 0 1 0 0-1.458zm-14 9.307c-3.299-.381-5.906-3.191-5.906-6.591v-5.487c0-1.137.38-2.763 1.339-3.174a2.627 2.627 0 0 0 2.471 1.715h2.096v13.536zm-2.097-14.995a1.15 1.15 0 0 1-1.148-1.148 3.23 3.23 0 0 1 3.227-3.227h1.568a3.23 3.23 0 0 1 3.227 3.227 1.15 1.15 0 0 1-1.148 1.148h-5.724zm9.461 8.404c0 3.425-2.572 6.252-5.906 6.599V11.666h2.169a2.58 2.58 0 0 0 2.435-1.715c.959.41 1.302 2.037 1.302 3.174v5.487z"/></svg>