<svg width="24" height="24" viewBox="0 0 24 24" xmlns="http://www.w3.org/2000/svg"><path d="M13 20.601v.01-.017.007z"/><path fill-rule="evenodd" clip-rule="evenodd" d="M20.949 14.052c-.275-3.579-1.941-5.822-3.411-7.8l-.001-.003C16.176 4.417 15 2.835 15 .501a.5.5 0 0 0-.791-.407c-2.208 1.58-4.05 4.243-4.694 6.784-.382 1.511-.48 3.183-.506 4.457-.007.317-.303.552-.584.405-1.553-.818-1.925-3.28-1.93-3.31a.503.503 0 0 0-.713-.38c-.107.052-2.625 1.332-2.771 6.44C3 14.658 3 14.83 3 15c0 4.962 4.038 9 9 9h.026c4.95-.015 8.974-4.047 8.974-9 0-.25-.051-.948-.051-.948zM15 19.829v-.045.045zm-.017-1.145c-.092-1.193-.647-1.94-1.137-2.6-.454-.611-.846-1.139-.846-1.917a.167.167 0 0 0-.264-.136c-.736.527-1.35 1.415-1.564 2.262-.09.354-.133.734-.153 1.076-.02.317-.324.529-.516.276-.264-.348-.337-.827-.338-.835a.168.168 0 0 0-.238-.127c-.035.018-.875.444-.923 2.147A3.003 3.003 0 0 0 12 22h.009A3.003 3.003 0 0 0 15 19c0-.083-.017-.316-.017-.316z"/></svg>