<svg xmlns="http://www.w3.org/2000/svg" width="29" height="32" viewBox="0 0 29 32"><path d="M15.714 2.286q-.821 0-1.411.589t-.589 1.411V16h-.571V6.571q0-.821-.589-1.411t-1.411-.589-1.411.589-.589 1.411v14l-2.75-3.661q-.679-.911-1.821-.911-.946 0-1.616.67t-.67 1.616q0 .768.464 1.375l6.857 9.143q.679.911 1.821.911h12.286q.607 0 1.089-.393t.607-1l1.357-7.232q.089-.571.089-1.054v-8.893q0-.821-.589-1.411t-1.411-.589-1.411.589-.589 1.411v4.857h-.571V6.57q0-.821-.589-1.411t-1.411-.589-1.411.589-.589 1.411v9.429h-.571V4.285q0-.821-.589-1.411t-1.411-.589zm0-2.286q1.214 0 2.241.634t1.58 1.723q.339-.071.75-.071 1.768 0 3.027 1.259t1.259 3.027v.304q1.875-.107 3.223 1.143t1.348 3.125v8.893q0 .714-.143 1.482l-1.357 7.214q-.25 1.411-1.366 2.339t-2.563.929H11.427q-1.071 0-2.045-.491t-1.616-1.33L.909 21.037q-.911-1.214-.911-2.75 0-1.893 1.339-3.232t3.232-1.339q1.393 0 2.286.607v-7.75q0-1.768 1.259-3.027t3.027-1.259q.411 0 .75.071.554-1.089 1.58-1.723t2.241-.634z"/></svg>