<svg xmlns="http://www.w3.org/2000/svg" width="32" height="32" viewBox="0 0 32 32"><path d="M28.593 6.769a1.846 1.846 0 1 1-3.692 0 1.846 1.846 0 0 1 3.692 0zM23.67 3.077a1.846 1.846 0 1 1-3.692 0 1.846 1.846 0 0 1 3.692 0zm-4.923-1.231a1.846 1.846 0 1 1-3.692 0 1.846 1.846 0 0 1 3.692 0zm-4.923 2.462a1.846 1.846 0 1 1-3.692 0 1.846 1.846 0 0 1 3.692 0z"/><path d="M24.901 6.769v8a.615.615 0 0 1-1.23 0V3.077h-3.692v10.462a.615.615 0 0 1-1.23 0V1.847h-3.692v11.692a.615.615 0 0 1-1.23 0V4.308h-3.692v15.385l-2.492-3.41c-.738-1.138-2.18-1.52-3.236-.868-1.052.667-1.313 2.122-.585 3.257 0 0 4.02 6.084 5.733 8.688s4.489 4.641 9.679 4.641c8.593 0 9.362-6.636 9.362-8.615V6.771h-3.692z"/></svg>