<svg xmlns="http://www.w3.org/2000/svg" width="32" height="32" viewBox="0 0 32 32"><path d="M19.007 31.935V30.06h.59c.508 0 .983-.037 1.427-.107.446-.074.83-.224 1.157-.448s.589-.549.786-.97c.196-.421.294-.981.294-1.68V16.394H8.742v10.461c0 .698.097 1.257.293 1.681.196.419.458.746.785.968.327.226.715.373 1.166.448a8.98 8.98 0 0 0 1.417.108h.59v1.875H0V30.06h.568c.508 0 .983-.037 1.428-.108a2.901 2.901 0 0 0 1.167-.448c.333-.226.595-.549.786-.968.188-.421.281-.983.281-1.681V4.969c0-.654-.098-1.179-.293-1.58a2.281 2.281 0 0 0-.798-.927 2.86 2.86 0 0 0-1.168-.425 9.503 9.503 0 0 0-1.404-.098H0V.064h12.993v1.875h-.59c-.494 0-.964.036-1.417.109-.45.072-.838.222-1.166.447-.326.225-.588.548-.785.971-.196.42-.293.981-.293 1.678v9.023h14.517V5.144c0-.699-.098-1.258-.294-1.679s-.458-.746-.785-.97a2.814 2.814 0 0 0-1.157-.447 8.681 8.681 0 0 0-1.428-.109h-.59V.064h12.993v1.875h-.566a8.81 8.81 0 0 0-1.428.109c-.444.072-.83.222-1.167.447-.333.225-.595.548-.785.97-.19.42-.283.981-.283 1.679v21.929c0 .655.099 1.181.294 1.58.196.401.463.703.797.904.333.205.721.338 1.167.405.444.065.912.098 1.404.098H32v1.875H19.008z"/></svg>