<svg xmlns="http://www.w3.org/2000/svg" width="34" height="32" viewBox="0 0 34 32"><path d="M11.429 10.286q0 1.429-1 2.429t-2.429 1-2.429-1-1-2.429 1-2.429 2.429-1 2.429 1 1 2.429zm18.285 6.857v8H4.571v-3.429L10.285 16l2.857 2.857 9.143-9.143zm1.715-12.572H2.858q-.232 0-.402.17t-.17.402v21.714q0 .232.17.402t.402.17h28.571q.232 0 .402-.17t.17-.402V5.143q0-.232-.17-.402t-.402-.17zm2.857.572v21.714q0 1.179-.839 2.018t-2.018.839H2.858q-1.179 0-2.018-.839t-.839-2.018V5.143q0-1.179.839-2.018t2.018-.839h28.571q1.179 0 2.018.839t.839 2.018z"/></svg>