<svg viewBox="0 0 28 28"><path d="M.983 14.977h12.514c.44 1.811 2.074 3.16 4.023 3.16s3.577-1.349 4.023-3.16h5.474c.543 0 .983-.44.983-.983s-.44-.977-.983-.977h-5.474c-.44-1.811-2.074-3.16-4.023-3.16s-3.577 1.349-4.023 3.16H.983a.982.982 0 0 0-.983.977.987.987 0 0 0 .983.983zm16.537-3.154c1.2 0 2.177.977 2.177 2.177a2.18 2.18 0 0 1-4.36 0c0-1.2.977-2.177 2.183-2.177zM.983 24.48h6.006c.44 1.811 2.074 3.16 4.023 3.16s3.577-1.349 4.023-3.16h11.983c.543 0 .983-.44.983-.977a.983.983 0 0 0-.983-.983H15.035c-.44-1.811-2.074-3.16-4.023-3.16s-3.577 1.349-4.023 3.16H.983a.983.983 0 0 0-.983.983.99.99 0 0 0 .983.977zm10.028-3.16c1.2 0 2.177.977 2.177 2.177s-.977 2.177-2.177 2.177a2.182 2.182 0 0 1-2.177-2.131v-.102a2.18 2.18 0 0 1 2.177-2.12zM.983 5.48h6.006c.44 1.811 2.074 3.16 4.023 3.16s3.577-1.349 4.023-3.16h11.983c.543 0 .983-.44.983-.983s-.44-.977-.983-.977H15.035c-.44-1.811-2.074-3.16-4.023-3.16S7.435 1.709 6.989 3.52H.983A.982.982 0 0 0 0 4.497a.99.99 0 0 0 .983.983zm10.028-3.16c1.2 0 2.177.977 2.177 2.177s-.977 2.177-2.177 2.177a2.182 2.182 0 0 1-2.177-2.131v-.102a2.184 2.184 0 0 1 2.177-2.12z"/></svg>