<svg width="24" height="24" viewBox="0 0 24 24" xmlns="http://www.w3.org/2000/svg"><path d="M23.042 7.327c-1.266-2.952-3.414-5.103-6.364-6.37A11.696 11.696 0 0 0 12.02 0c-1.627 0-3.185.325-4.672.958C4.373 2.227 2.212 4.369.945 7.327A11.683 11.683 0 0 0 0 11.987c0 1.628.31 3.193.945 4.672 1.267 2.958 3.428 5.111 6.403 6.383 1.487.633 3.045.958 4.672.958 1.627 0 3.173-.322 4.658-.958 2.95-1.269 5.099-3.43 6.364-6.383.637-1.484.958-3.044.958-4.672 0-1.63-.32-3.176-.958-4.66zM12.02 1.445c1.587 0 3.083.328 4.487.997l-1.666 3.204a7.14 7.14 0 0 0-2.821-.59c-1.024 0-1.982.21-2.887.616L7.466 2.468a10.607 10.607 0 0 1 4.554-1.023zM2.44 16.45c-.655-1.364-.984-2.848-.984-4.462 0-1.563.315-3.033.958-4.41l3.202 1.666a7.133 7.133 0 0 0-.564 2.744c0 .972.197 1.902.59 2.796L2.441 16.45zm9.58 6.106c-1.562 0-3.058-.342-4.514-1.025l1.653-3.202c.88.407 1.824.617 2.86.617a6.83 6.83 0 0 0 2.796-.591l1.666 3.204c-1.378.67-2.874.997-4.461.997zm3.857-6.669c-1.063 1.076-2.349 1.613-3.857 1.613-1.51 0-2.815-.529-3.898-1.613-1.082-1.084-1.614-2.389-1.614-3.899 0-1.51.535-2.8 1.614-3.873 1.086-1.081 2.389-1.616 3.898-1.616 1.509 0 2.791.543 3.857 1.616 1.073 1.078 1.614 2.364 1.614 3.873 0 1.51-.538 2.81-1.614 3.9zm5.682.591l-3.201-1.666c.393-.894.59-1.84.59-2.824 0-.957-.184-1.865-.564-2.744l3.201-1.695c.643 1.42.958 2.902.958 4.44 0 1.601-.328 3.097-.984 4.49z"/></svg>