<svg xmlns="http://www.w3.org/2000/svg" width="32" height="32" viewBox="0 0 32 32"><path d="M27.325 12.474h-5.221c-.678 0-1.233.555-1.233 1.233s.555 1.233 1.233 1.233h3.967v14.593H5.928V14.94h4.378c.678 0 1.233-.555 1.233-1.233s-.555-1.233-1.233-1.233H4.674c-.678 0-1.213.617-1.213 1.295V30.87c0 .678.534 1.13 1.213 1.13h22.65c.678 0 1.213-.452 1.213-1.13V13.769c0-.678-.534-1.295-1.213-1.295z"/><path d="M15.794 21.723c.678 0 1.233-.555 1.233-1.233V3.78l5.262 4.686a1.25 1.25 0 0 0 1.747-.103 1.236 1.236 0 0 0-.103-1.747L16.842.306a1.24 1.24 0 0 0-1.583-.041 1.243 1.243 0 0 0-.534.493L8.579 6.657a1.235 1.235 0 1 0 1.706 1.788l4.275-4.111v16.155c0 .678.555 1.233 1.233 1.233z"/></svg>