<svg viewBox="0 0 28 28"><path d="M7.654.87a.869.869 0 0 0-.87-.87H.924a.869.869 0 0 0-.87.87v5.863c0 .482.389.87.87.87h5.863c.482 0 .87-.389.87-.87V.87h-.003zm10.145 0a.869.869 0 0 0-.87-.87h-5.86a.869.869 0 0 0-.87.87v5.863c0 .482.389.87.87.87h5.86c.482 0 .87-.389.87-.87V.87zm10.144 0a.869.869 0 0 0-.87-.87h-5.86a.869.869 0 0 0-.87.87v5.863c0 .482.389.87.87.87h5.863c.482 0 .87-.389.87-.87V.87h-.003zM7.654 11.07a.869.869 0 0 0-.87-.87H.924a.869.869 0 0 0-.87.87v5.86c0 .482.389.87.87.87h5.863c.482 0 .87-.389.87-.87v-5.86h-.003zm10.145 0a.869.869 0 0 0-.87-.87h-5.86a.869.869 0 0 0-.87.87v5.86c0 .482.389.87.87.87h5.86c.482 0 .87-.389.87-.87v-5.86zm10.144 0a.869.869 0 0 0-.87-.87h-5.86a.869.869 0 0 0-.87.87v5.86c0 .482.389.87.87.87h5.863c.482 0 .87-.389.87-.87v-5.86h-.003zM6.784 20.397H.924a.869.869 0 0 0-.87.87v5.863c0 .482.389.87.87.87h5.863c.482 0 .87-.389.87-.87v-5.863a.875.875 0 0 0-.873-.87zm10.145 0h-5.86a.869.869 0 0 0-.87.87v5.863c0 .482.389.87.87.87h5.86c.482 0 .87-.389.87-.87v-5.863a.87.87 0 0 0-.87-.87zm10.144 0h-5.86a.869.869 0 0 0-.87.87v5.863c0 .482.389.87.87.87h5.863c.482 0 .87-.389.87-.87v-5.863a.875.875 0 0 0-.873-.87z"/></svg>