<svg xmlns="http://www.w3.org/2000/svg" width="32" height="32" viewBox="0 0 32 32"><path d="M31.583 7.862c-.018.288-.056.488-.109.585-.056.105-.221.182-.491.229-.588.13-.979-.093-1.172-.668-.683-2.118-1.497-3.524-2.437-4.229-1.305-.969-3.587-1.455-6.855-1.455-1.321 0-2.047.144-2.173.43a.966.966 0 0 0-.071.406v23.813c0 1.018.236 1.733.716 2.142.479.401 1.34.916 2.759 1.252.605.129 1.216.251 1.296.3.577 0 .632 1.325-.471 1.325-.031.02-13.004-.01-13.004-.01s-.906-.55-.093-1.282l.961-.43s2.294-.77 2.771-1.265c.544-.558.812-1.459.812-2.7V3.159c0-.462-.287-.733-.861-.811-.061-.019-.533-.025-1.406-.025-3.027 0-5.253.524-6.691 1.578-1.083.78-2.042 2.211-2.887 4.302-.272.652-.648.864-1.124.643-.541-.127-.738-.425-.598-.884.558-1.722.837-4.149.837-7.287 0-.366.485-.734 1.458-.668L29.53.08c.889-.13 1.374.015 1.454.43.446 2.117.644 4.569.599 7.352z"/></svg>