<svg xmlns="http://www.w3.org/2000/svg" width="32" height="32" viewBox="0 0 32 32"><path d="M5.818 13.091h20.363c.394 0 .735-.144 1.023-.432s.432-.629.432-1.023-.144-.735-.432-1.023L17.022.431c-.288-.288-.628-.432-1.023-.432s-.735.144-1.023.432L4.794 10.613c-.288.288-.432.629-.432 1.023s.144.735.432 1.023c.288.288.629.432 1.023.432zm20.364 5.818H5.819c-.394 0-.735.144-1.023.432s-.432.629-.432 1.023.144.735.432 1.023l10.182 10.182c.288.288.629.432 1.023.432s.735-.144 1.023-.432l10.182-10.182c.288-.288.432-.629.432-1.023s-.144-.735-.432-1.023a1.397 1.397 0 0 0-1.023-.431z"/></svg>