<svg xmlns="http://www.w3.org/2000/svg" width="32" height="32" viewBox="0 0 32 32"><path d="M17.317 11.758a1.768 1.768 0 0 1-3.02-1.251V6.034l-2.402 2.402a1.769 1.769 0 1 1-2.502-2.502L14.818.512a1.74 1.74 0 0 1 .743-.441h.003a1.795 1.795 0 0 1 1.064.019c.257.087.495.235.688.424l5.422 5.422a1.769 1.769 0 1 1-2.502 2.502l-2.402-2.405v4.477c0 .486-.199.929-.518 1.248zm0 8.477a1.768 1.768 0 0 0-3.02 1.251v4.477l-2.402-2.402a1.769 1.769 0 1 0-2.502 2.502l5.425 5.425c.206.206.463.36.743.441h.003c.347.103.724.093 1.064-.019a1.83 1.83 0 0 0 .688-.424l5.422-5.422a1.769 1.769 0 1 0-2.502-2.502l-2.402 2.399v-4.477c0-.486-.199-.929-.518-1.248zm12.375-6.473H2.312c-1.245 0-2.251 1.007-2.251 2.251s1.007 2.251 2.251 2.251h27.377c1.245 0 2.251-1.007 2.251-2.251s-1.007-2.251-2.248-2.251z"/></svg>