<svg width="21" height="24" viewBox="0 0 21 24" xmlns="http://www.w3.org/2000/svg"><g fill-rule="evenodd"><path d="M10.5 9.5a2 2 0 1 0 .001 4.001A2 2 0 0 0 10.5 9.5"/><path d="M14.918 12.318l.662.383c.238.138.32.443.183.683l-1 1.732a.5.5 0 0 1-.683.182l-.674-.388a4.474 4.474 0 0 1-1.406.814v.776a.5.5 0 0 1-.5.5h-2a.5.5 0 0 1-.5-.5v-.776a4.486 4.486 0 0 1-1.406-.814l-.674.388a.5.5 0 0 1-.683-.182l-1-1.732a.502.502 0 0 1 .183-.683l.662-.383a4.138 4.138 0 0 1 0-1.637l-.662-.383a.498.498 0 0 1-.184-.682l1-1.732a.5.5 0 0 1 .684-.183l.674.388A4.505 4.505 0 0 1 9 7.275V6.5a.5.5 0 0 1 .5-.5h2a.5.5 0 0 1 .5.5v.775c.522.186.993.463 1.406.814l.674-.388a.5.5 0 0 1 .684.183l1 1.732a.498.498 0 0 1-.184.682l-.662.383a4.138 4.138 0 0 1 0 1.637m5.712-7.78c-.073-.02-7.398-2.016-9.769-4.392a.537.537 0 0 0-.724 0C7.77 2.52.443 4.517.37 4.537A.5.5 0 0 0 0 5.02c0 8.57.761 15.405 10.326 18.948a.496.496 0 0 0 .348 0C20.239 20.425 21 13.59 21 5.02a.5.5 0 0 0-.37-.483"/></g></svg>