<svg xmlns="http://www.w3.org/2000/svg" viewBox="0 0 96.8 80.16"><path d="M71.44 15.08l15.21-7-.31-.63.26.65-.31-.63.26.65h.14v-.56l-.18.45a.46.46 0 0 0 .18 0v-.45l-.18.45.27-.71-.5.57.23.14.27-.71-.5.57.4-.45-.51.32.11.13.4-.45-.51.32.25-.16-.26.14.25-.16-.26.14a2.32 2.32 0 0 1 .07.64v47.12h1.22-1.22 1.22-1.22a4.69 4.69 0 0 1-.22 1.4 2.8 2.8 0 0 1-.44.8 1.79 1.79 0 0 1-.65.53l.87 1.8-.78-1.85-38.34 17.72a2.004 2.004 0 0 0 1.68 3.64l38.31-17.73a5.83 5.83 0 0 0 2.2-1.82 8.17 8.17 0 0 0 1.45-4.49V8.36a6.41 6.41 0 0 0-.22-1.73 4 4 0 0 0-.53-1.13 3.29 3.29 0 0 0-1.37-1.16 3.46 3.46 0 0 0-1.42-.29 4.34 4.34 0 0 0-1.26.19 3.17 3.17 0 0 0-.57.22l.87 1.8-.8-1.82-15.2 7a2.004 2.004 0 1 0 1.68 3.64z"/><path d="M46.35 20.75l-34.8-16.3a3.17 3.17 0 0 0-.57-.22 4.34 4.34 0 0 0-1.26-.19 3.59 3.59 0 0 0-1.25.22 3.2 3.2 0 0 0-1 .6 3.61 3.61 0 0 0-1 1.56 5.74 5.74 0 0 0-.27 1.94v47.1a8.24 8.24 0 0 0 .41 2.4 7.25 7.25 0 0 0 1 2.07 5.83 5.83 0 0 0 2.2 1.82l36.8 17.7a2 2 0 1 0 1.76-3.59l-36.8-17.7a1.92 1.92 0 0 1-.7-.59 3.59 3.59 0 0 1-.58-1.4 4 4 0 0 1-.08-.57v-.16h-.85.85-.85.85V8.36a2.57 2.57 0 0 1 .06-.61l-.54-.24L10 8a.72.72 0 0 0 .27-.25l-.54-.24L10 8l-.27-.48v.57a.52.52 0 0 0 .27-.13l-.27-.48v.57h.11l.32-.77-.37.75h.05l.32-.77-.37.75 34.81 16.3a2 2 0 1 0 1.7-3.62z"/><path d="M46 37.06v37.2a2 2 0 0 0 4 0v-37.2a2 2 0 0 0-4 0"/><path d="M89.3 14.97l3.28-1h.09l-.42-1 .39 1-.42-1 .39 1a1.22 1.22 0 0 1 .39-.11v-.31.31-.31.31l.21-.4-.43.21a.63.63 0 0 0 .22.19l.21-.4-.43.21a1.66 1.66 0 0 1 .06.52v47.07h.71-.71.71-.71a4.28 4.28 0 0 1-.28 1.24 2.9 2.9 0 0 1-.51.82 2.33 2.33 0 0 1-.87.61l.76 1.85-.59-1.92-43.1 12.4a2 2 0 0 0 1.1 3.84l43.21-12.45h.11a6.45 6.45 0 0 0 2.43-1.79 7.15 7.15 0 0 0 1.49-3 7.3 7.3 0 0 0 .21-1.57V14.16a5.58 5.58 0 0 0-.27-1.81 3.79 3.79 0 0 0-.63-1.17 3.43 3.43 0 0 0-1.47-1.08A3.91 3.91 0 0 0 93 9.86a5.17 5.17 0 0 0-1.29.17 5.38 5.38 0 0 0-.58.19l.76 1.85-.6-1.91-3.2 1a2.002 2.002 0 0 0 1.2 3.82z"/><path d="M7.61 10.5l-1.23-.26-.89-.19-.31-.08H5.1l-.3 1 .34-1-.3 1 .34-1h-.14a4.56 4.56 0 0 0-1.12-.14 4.07 4.07 0 0 0-1.27.2 3.65 3.65 0 0 0-1.93 1.51A5.05 5.05 0 0 0 0 14.16v47.1a7.39 7.39 0 0 0 .49 2.5 6.9 6.9 0 0 0 1.21 2.1 6.41 6.41 0 0 0 2.44 1.76h.1l42.9 12.43a2 2 0 1 0 1.12-3.84L5.46 63.86l-.56 1.9.76-1.85a2.33 2.33 0 0 1-.91-.66 3.15 3.15 0 0 1-.65-1.34 4.16 4.16 0 0 1-.1-.53v-.13H3h1-1 1V14.16a1.69 1.69 0 0 1 .06-.53l-.35-.19.17.35.18-.16-.35-.19.17.35-.11-.22v.24h.06l-.11-.22v.24h.14l.64-1.97-.63 1.9.35.1 1.56.34 1 .22a2.002 2.002 0 1 0 .82-3.92zM65.4 3.06L64 1.65l-5.3 5.3-22.4 22.4a2 2 0 0 0 0 2.82l.1.1a2 2 0 0 0 2.35.36 2.74 2.74 0 0 1 1.3-.31 3.85 3.85 0 0 1 2.66 1.15 3.93 3.93 0 0 1 1.19 2.66 2.44 2.44 0 0 1-.31 1.23 2 2 0 0 0 .32 2.42l.1.1a2 2 0 0 0 2.82 0l27.7-27.6.08-.09a6.42 6.42 0 0 0 1.59-4.33 7.83 7.83 0 0 0-2.39-5.53 7.76 7.76 0 0 0-5.48-2.35 6.37 6.37 0 0 0-4.26 1.57l-.08.08 1.41 1.43 1.33 1.49a2.36 2.36 0 0 1 1.6-.55A3.84 3.84 0 0 1 71 5.17a4 4 0 0 1 1.2 2.69 2.43 2.43 0 0 1-.59 1.65l1.49 1.35-1.41-1.42L44 37.04l1.4 1.42 1.41-1.42-.1-.1-1.41 1.42 1.73 1a6.42 6.42 0 0 0 .85-3.23A8 8 0 0 0 40 28.32a6.8 6.8 0 0 0-3.16.77l.96 1.77 1.42-1.41-.1-.1-1.42 1.41 1.41 1.41 22.4-22.4 5.3-5.3-1.41-1.41 1.33 1.49z"/><path d="M35.79 30.08l-3.41 11.3a2 2 0 0 0 2.52 2.48l11.2-3.5a2.002 2.002 0 1 0-1.2-3.82l-7.6 2.38 2.32-7.69a2 2 0 1 0-3.83-1.16zm32.02-11.22a6.31 6.31 0 0 0 1.81-4.55 7.73 7.73 0 0 0-2.31-5.45A7.63 7.63 0 0 0 62 6.49a6 6 0 0 0-4.42 1.89 2.002 2.002 0 1 0 2.9 2.76 2 2 0 0 1 1.52-.65 3.75 3.75 0 0 1 2.52 1.18 3.81 3.81 0 0 1 1.13 2.65 2.42 2.42 0 0 1-.65 1.73 2 2 0 0 0 2.81 2.81z"/></svg>