<svg xmlns="http://www.w3.org/2000/svg" viewBox="0 0 97.83 85.6"><path d="M91.4 50.3l1.79.9c3.21-6.4 4.64-12 4.64-16.82a19.84 19.84 0 0 0-1.77-8.45 17.59 17.59 0 0 0-7.9-8.17A23.92 23.92 0 0 0 77 15.14a28.2 28.2 0 0 0-3 .17h-.11a11.61 11.61 0 0 1-1.57.07v2l2-.3a21.53 21.53 0 0 0-6-12.09 16.77 16.77 0 0 0-11.78-5 16.47 16.47 0 0 0-10.96 4.27 21.11 21.11 0 0 0-6.32 10.54l1.94.5.33-2a22.93 22.93 0 0 0-21.8 8.3 31.52 31.52 0 0 0-7.23 20.5 32 32 0 0 0 5.09 17.55A25.35 25.35 0 0 0 30.67 70l.63-1.9-1.88.68a25.13 25.13 0 0 0 7.78 11.1 19.67 19.67 0 0 0 12.3 4.42 19.23 19.23 0 0 0 9.31-2.41A22.24 22.24 0 0 0 66 75.48l-1.6-1.18-1.61 1.19a19.59 19.59 0 0 0 6.37 5.59 17.2 17.2 0 0 0 8.24 2.12A18 18 0 0 0 91 76.75a23.2 23.2 0 0 0 5.5-15.25v-.05a24.91 24.91 0 0 0-3.38-12.17l-1.72 1 1.79.9-1.79-.9-1.72 1A20.81 20.81 0 0 1 92.5 61.6h2-2A19.21 19.21 0 0 1 88 74.12a14 14 0 0 1-10.6 5.08 13.22 13.22 0 0 1-6.33-1.6A15.46 15.46 0 0 1 66 73.11a2 2 0 0 0-1.61-.81 2 2 0 0 0-1.61.82 18.38 18.38 0 0 1-5.9 5.26 15.18 15.18 0 0 1-7.38 1.92 15.62 15.62 0 0 1-9.8-3.55 21 21 0 0 1-6.52-9.33 2 2 0 0 0-1.25-1.22 21.35 21.35 0 0 1-11-8.75A28 28 0 0 1 16.5 42.1a27.58 27.58 0 0 1 6.27-17.88A19.45 19.45 0 0 1 37.6 17a20 20 0 0 1 3.27.27 2 2 0 0 0 2.27-1.47 17.12 17.12 0 0 1 5.08-8.54A12.43 12.43 0 0 1 56.5 4a12.74 12.74 0 0 1 9 3.86 17.37 17.37 0 0 1 4.85 9.84 2 2 0 0 0 2 1.7 13.1 13.1 0 0 0 2.23-.13l-.33-2 .22 2a22.84 22.84 0 0 1 2.53-.13 18.63 18.63 0 0 1 11.76 3.8 13.21 13.21 0 0 1 3.68 4.66 15.74 15.74 0 0 1 1.39 6.76c0 4-1.21 9-4.22 15a2 2 0 0 0 .07 1.92zM8.9 59.5v2a3.31 3.31 0 1 1-2.33 1 3.26 3.26 0 0 1 2.33-1v-4a7.3 7.3 0 1 0 7.3 7.3 7.3 7.3 0 0 0-7.3-7.3zM5.5 76.6v2A1.5 1.5 0 1 1 4 80.1a1.5 1.5 0 0 1 1.5-1.5v-4a5.5 5.5 0 1 0 5.5 5.5 5.5 5.5 0 0 0-5.5-5.5z"/><path d="M50.8 48.8c0-8 10.6-8.8 10.6-14.4 0-2.6-2-4.7-6.2-4.7a10.81 10.81 0 0 0-9.1 4.6l-4.5-4.9a18 18 0 0 1 14.3-6.5c8.3 0 13.3 4.4 13.3 10.3 0 9.7-11.7 10.5-11.7 16.3a4.05 4.05 0 0 0 1.4 3l-5.8 2a7.85 7.85 0 0 1-2.3-5.7zm.1 14.5a4.6 4.6 0 0 1 9.2 0 4.6 4.6 0 1 1-9.2 0z"/><path d="M50.8 48.8h2a5.73 5.73 0 0 1 .34-2 6.94 6.94 0 0 1 1.92-2.72c1.35-1.28 3.21-2.38 4.92-3.73a10.93 10.93 0 0 0 2.32-2.42 6.19 6.19 0 0 0 1.1-3.53 6.56 6.56 0 0 0-.55-2.65 6.35 6.35 0 0 0-2.91-3 10.2 10.2 0 0 0-4.74-1 13 13 0 0 0-6.2 1.44 13.44 13.44 0 0 0-4.5 3.91l1.6 1.2 1.47-1.35-4.5-4.9-1.47 1.35 1.56 1.25A16 16 0 0 1 55.9 24.9c3.8 0 6.66 1 8.51 2.5a7.19 7.19 0 0 1 2.79 5.8 7.65 7.65 0 0 1-1.45 4.66 13.14 13.14 0 0 1-2.55 2.56c-1.5 1.18-3.2 2.25-4.75 3.55a9.85 9.85 0 0 0-2 2.31 6 6 0 0 0-.45 5.64 5.58 5.58 0 0 0 1.64 2.16l1.26-1.58-.65-1.9-5.8 2 .65 1.89 1.41-1.41a5.86 5.86 0 0 1-1.3-2 6.45 6.45 0 0 1-.41-2.31h-4a10.18 10.18 0 0 0 .69 3.83 9.62 9.62 0 0 0 2.19 3.35 2 2 0 0 0 2.07.48l5.8-2a2 2 0 0 0 .58-3.47 1.67 1.67 0 0 1-.44-.62 2.26 2.26 0 0 1-.19-.8 2 2 0 0 1 .26-1 7.64 7.64 0 0 1 2.15-2.16 45.84 45.84 0 0 0 5.78-4.57 12.86 12.86 0 0 0 2.49-3.61 11.87 11.87 0 0 0 1-4.94 11.45 11.45 0 0 0-1.11-5 12 12 0 0 0-5.41-5.4 19 19 0 0 0-8.76-1.96A20 20 0 0 0 40 28.15a2 2 0 0 0 .09 2.6l4.5 4.9a2 2 0 0 0 1.57.65 2 2 0 0 0 1.5-.8 9.73 9.73 0 0 1 3.14-2.79 9.15 9.15 0 0 1 4.36-1 5.25 5.25 0 0 1 3.4.91 2.19 2.19 0 0 1 .6.78 2.43 2.43 0 0 1 .2 1 2.14 2.14 0 0 1-.24 1 6.51 6.51 0 0 1-1.88 2 53.75 53.75 0 0 0-5.2 4 11.34 11.34 0 0 0-2.32 3.11 9.81 9.81 0 0 0-1 4.29zm.1 14.5h2a2.46 2.46 0 0 1 .77-1.7 2.56 2.56 0 0 1 3.66 0 2.46 2.46 0 0 1 .77 1.73 2.76 2.76 0 0 1-.8 1.89 2.4 2.4 0 0 1-3.6 0 2.76 2.76 0 0 1-.8-1.89h-4a6.7 6.7 0 0 0 1.93 4.68 6.41 6.41 0 0 0 9.34 0 6.7 6.7 0 0 0 1.93-4.71 6.43 6.43 0 0 0-2-4.57 6.54 6.54 0 0 0-9.28 0 6.43 6.43 0 0 0-2 4.57z"/></svg>