<svg xmlns="http://www.w3.org/2000/svg" viewBox="0 0 90.5 97"><path d="M30.5 56.5a26 26 0 1 1 26-26 2 2 0 0 0 4 0 30 30 0 1 0-30 30 2 2 0 0 0 0-4zm0-42c-4.5 0-9.4 3-10 9.8l4 .4c.5-5.9 5.1-6.2 6-6.2 1.4 0 5.9.4 5.9 5.1 0 2.5-1.5 3.7-3.6 5.5-2 1.6-4.7 3.6-4.7 7.4v2h4v-2c0-1.7 1.3-2.7 3.3-4.3 2.2-1.8 5.2-4.1 5.2-8.6-.1-5.4-4.1-9.1-10.1-9.1zm1.5 28h-4v4h4zm50.5-4h-36c-4.4 0-8.5 3.6-8.5 8v34c0 4.4 4.1 8 8.5 8h11l5.4 7.2a2 2 0 0 0 3.2 0l5.4-7.2h11c4.4 0 7.5-3.6 7.5-8v-34c0-4.4-3.1-8-7.5-8zm3.5 42c0 2.2-1.3 4-3.5 4h-12a2.09 2.09 0 0 0-1.6.8l-4.4 5.9-4.4-5.9a2.09 2.09 0 0 0-1.6-.8h-12c-2.2 0-4.5-1.8-4.5-4v-34c0-2.2 2.3-4 4.5-4h36c2.2 0 3.5 1.8 3.5 4zm-23.7-11l-8.4-8.4-2.8 2.8 10 10a2 2 0 0 0 1.4.6h.1a2.13 2.13 0 0 0 1.5-.7l16-20-3.1-2.5z"/><path d="M30.5 56.5V56A25.47 25.47 0 1 1 56 30.5a2.5 2.5 0 0 0 5 0A30.5 30.5 0 1 0 30.5 61a2.5 2.5 0 0 0 0-5v1a1.5 1.5 0 0 1 0 3A29.46 29.46 0 1 1 60 30.5a1.5 1.5 0 0 1-3 0A26.5 26.5 0 1 0 30.5 57zm0-42V14a10.48 10.48 0 0 0-6.79 2.5A11.24 11.24 0 0 0 20 24.26a.51.51 0 0 0 .45.54l4 .4a.5.5 0 0 0 .37-.12.48.48 0 0 0 .18-.34c.25-2.82 1.41-4.18 2.61-4.93A5.8 5.8 0 0 1 30.5 19a7.32 7.32 0 0 1 3.24.73 3.92 3.92 0 0 1 1.51 1.36 4.52 4.52 0 0 1 .65 2.51 4.25 4.25 0 0 1-.9 2.71 17.45 17.45 0 0 1-2.52 2.41l.33.38-.31-.39a18.39 18.39 0 0 0-3.18 3 7.57 7.57 0 0 0-1.72 4.79v2a.51.51 0 0 0 .5.5h4a.51.51 0 0 0 .5-.5v-2a2.69 2.69 0 0 1 .78-1.86 18.19 18.19 0 0 1 2.33-2 20 20 0 0 0 3.5-3.38 9 9 0 0 0 1.89-5.66 9.4 9.4 0 0 0-3-6.94 11.14 11.14 0 0 0-7.6-2.65v1a10.08 10.08 0 0 1 6.93 2.4 8.38 8.38 0 0 1 2.67 6.21 8 8 0 0 1-1.67 5 18.93 18.93 0 0 1-3.35 3.2l.32.39-.31-.39a20.32 20.32 0 0 0-2.47 2.17 3.74 3.74 0 0 0-1 2.52v1.5h-3V36.5a6.59 6.59 0 0 1 1.49-4.22 18.28 18.28 0 0 1 3-2.79 18.72 18.72 0 0 0 2.66-2.56 5.21 5.21 0 0 0 1.13-3.33 5.6 5.6 0 0 0-.8-3.05 5.31 5.31 0 0 0-3-2.15 8.88 8.88 0 0 0-2.63-.4 6.8 6.8 0 0 0-3.41 1c-1.45.88-2.84 2.62-3.09 5.7h.5l.05-.5-4-.4-.05.5h.5a10.22 10.22 0 0 1 3.36-7.11A9.42 9.42 0 0 1 30.5 15zm1.5 28V42h-4a.51.51 0 0 0-.5.5v4a.51.51 0 0 0 .5.5h4a.51.51 0 0 0 .5-.5v-4a.51.51 0 0 0-.5-.5v.5h-.5V46h-3v-3H32v-.5zm50.5-4V38h-36a9.32 9.32 0 0 0-6.24 2.5 8.23 8.23 0 0 0-2.76 6v34a8.23 8.23 0 0 0 2.76 6A9.32 9.32 0 0 0 46.5 89h10.75l5.25 7a2.5 2.5 0 0 0 4 0l5.25-7H82.5a7.69 7.69 0 0 0 5.77-2.5 8.86 8.86 0 0 0 2.23-6v-34a8.86 8.86 0 0 0-2.23-6A7.69 7.69 0 0 0 82.5 38v1a6.7 6.7 0 0 1 5 2.19 7.81 7.81 0 0 1 2 5.31v34a7.81 7.81 0 0 1-2 5.31 6.7 6.7 0 0 1-5 2.19h-11a.48.48 0 0 0-.4.2l-5.4 7.2.4.3-.39-.31a1.51 1.51 0 0 1-2.42 0l-.39.31.4-.3-5.4-7.2a.48.48 0 0 0-.4-.2h-11a8.31 8.31 0 0 1-5.56-2.22 7.21 7.21 0 0 1-2.44-5.28v-34a7.21 7.21 0 0 1 2.44-5.28A8.31 8.31 0 0 1 46.5 39h36zm3.5 42h-.5a4 4 0 0 1-.81 2.51 2.75 2.75 0 0 1-2.19 1h-12a2.55 2.55 0 0 0-2 1l-4 5.36-4-5.36a2.55 2.55 0 0 0-2-1h-12a4.34 4.34 0 0 1-2.75-1.06 3.25 3.25 0 0 1-1.25-2.45v-34a3.25 3.25 0 0 1 1.25-2.44A4.34 4.34 0 0 1 46.5 43h36a2.75 2.75 0 0 1 2.19 1 4 4 0 0 1 .81 2.5v34h1v-34a4.87 4.87 0 0 0-1-3.14 3.73 3.73 0 0 0-3-1.36h-36a5.37 5.37 0 0 0-3.4 1.29 4.29 4.29 0 0 0-1.6 3.21v34a4.29 4.29 0 0 0 1.6 3.21A5.37 5.37 0 0 0 46.5 85h12a1.59 1.59 0 0 1 1.21.61l.39-.31-.4.3 4.4 5.9a.5.5 0 0 0 .8 0l4.4-5.9-.4-.3.39.31A1.59 1.59 0 0 1 70.5 85h12a3.73 3.73 0 0 0 3-1.36 4.87 4.87 0 0 0 1-3.14zm-23.7-11l.35-.35-8.4-8.4a.48.48 0 0 0-.7 0l-2.8 2.8a.48.48 0 0 0 0 .7l10 10a2.47 2.47 0 0 0 1.75.75h.1a2.59 2.59 0 0 0 1.85-.85l16-20a.5.5 0 0 0-.08-.7l-3.1-2.5a.5.5 0 0 0-.7.08l-14.7 18.2.39.31.35-.35-.31.31.39.31L77.08 52l2.32 1.88L63.71 73.5l.39.31-.35-.31a1.65 1.65 0 0 1-1.15.55h-.1a1.48 1.48 0 0 1-1-.45l-9.69-9.7 2.09-2.09 8.05 8a.5.5 0 0 0 .38.15.52.52 0 0 0 .36-.19z"/></svg>