<svg xmlns="http://www.w3.org/2000/svg" viewBox="0 0 84 83.3"><path d="M71.6 4a8.41 8.41 0 0 1 5.93 2.44A8.19 8.19 0 0 1 80 12.3v41.9a8.23 8.23 0 0 1-1.73 5 8.4 8.4 0 0 1-4.4 3l-3.7 1a2 2 0 0 0-1.47 1.9v12.43L48.23 63.65l-1.29-.89a2 2 0 0 0-1.14-.36H12.5a8.46 8.46 0 0 1-6-2.4A8.28 8.28 0 0 1 4 54.16H2h2V12.3H2h2a8.53 8.53 0 0 1 8.5-8.34h59.1a2 2 0 0 0 0-4H12.5A12.52 12.52 0 0 0 0 12.27v42a12.29 12.29 0 0 0 3.72 8.64 12.55 12.55 0 0 0 8.78 3.49h32.67l.79.54 23.6 16a2 2 0 0 0 3.14-1.64V66.63l2.22-.6a12.3 12.3 0 0 0 6.5-4.38A12.18 12.18 0 0 0 84 54.2V12.3a12.19 12.19 0 0 0-3.66-8.71A12.41 12.41 0 0 0 71.6 0a2 2 0 0 0 0 4z"/><path d="M14.9 34.6h54.3a2 2 0 0 0 0-4H14.9a2 2 0 0 0 0 4m0 14.8h54.3a2 2 0 0 0 0-4H14.9a2 2 0 1 0 0 4m0-29.6h54.3a2 2 0 0 0 0-4H14.9a2 2 0 0 0 0 4"/></svg>