<svg xmlns="http://www.w3.org/2000/svg" viewBox="0 0 95.65 92.98"><path d="M73.95 68.47a38.16 38.16 0 0 1-31.66 16.78 38.77 38.77 0 0 1-20.79-6.08 2 2 0 1 0-2.15 3.37 42.7 42.7 0 0 0 22.94 6.71 42.17 42.17 0 0 0 35-18.54 2 2 0 0 0-3.31-2.24z"/><path d="M30.74 74.46L8.97 69.59l6.68 21.38 15.09-16.51z"/><path d="M30.74 74.46l.46-1.95-21.79-4.87a2 2 0 0 0-2.35 2.55l6.68 21.38a2 2 0 0 0 1.46 1.36 2 2 0 0 0 1.91-.61L32.2 75.81a2 2 0 0 0-1-3.3l-.43 1.95-1.48-1.35-12.74 14-4.64-14.81 18.39 4.11.44-2-1.48-1.35zM45.1 8.77A38.25 38.25 0 0 1 80.57 47v1.82a2 2 0 0 0 4 0V47A42.25 42.25 0 0 0 45.39 4.78a2.005 2.005 0 0 0-.29 4z"/><path d="M71.79 43.15l6.87 21.29 14.99-16.52-21.86-4.77z"/><path d="M71.79 43.15l-1.91.61 6.88 21.29a2 2 0 0 0 3.38.73l15-16.52A2 2 0 0 0 94.07 46L72.2 41.19a2 2 0 0 0-2.33 2.57l1.91-.61-.43 2 18.48 4L79.5 60.53l-5.81-18-1.9.62-.43 2zM7.71 63.55A37.34 37.34 0 0 1 4 47a38.38 38.38 0 0 1 20.6-34 2.004 2.004 0 0 0-1.86-3.55A42.41 42.41 0 0 0 0 47a41.45 41.45 0 0 0 4.12 18.32 2.001 2.001 0 1 0 3.59-1.77z"/><path d="M24.15 23.29L39.14 6.77 17.27 2l6.88 21.29z"/><path d="M24.2 23.29l1.48 1.34 15-16.51a2 2 0 0 0-1.06-3.3L17.7.05a2 2 0 0 0-2.33 2.56L22.2 23.9a2 2 0 0 0 3.39.73l-1.39-1.34 1.9-.62-5.8-18L35.33 8 22.67 22l1.53 1.29 1.9-.62z"/></svg>