<svg xmlns="http://www.w3.org/2000/svg" viewBox="0 0 91.7 95.5"><path d="M67 93.5V78.1h-2l.75 1.85a41.76 41.76 0 0 0 18.68-15A41.5 41.5 0 1 0 8.7 40.23l2 .07L9 39.24l-8.7 14a2 2 0 0 0 1.64 3.06l10.9.3.06-2-1.89.66c1.22 3.45 2.38 7.76 4 11.86a37 37 0 0 0 2.88 5.9 18.72 18.72 0 0 0 4.18 4.85 18.4 18.4 0 0 0 9.14 3.42c3.28.45 6.66.47 9.7.62l.1-2h-2V93.5a2 2 0 0 0 4 0V79.9a2 2 0 0 0-1.9-2c-3.16-.15-6.43-.18-9.35-.58a14.63 14.63 0 0 1-7.16-2.62 14.4 14.4 0 0 1-3.26-3.82 41 41 0 0 1-3.69-8.18c-1-3-1.9-6.05-2.86-8.79a2 2 0 0 0-1.84-1.34l-7.41-.2 6.86-11a2 2 0 0 0 .3-1 37.52 37.52 0 1 1 51.55 35.88A2 2 0 0 0 63 78.1v15.4a2 2 0 0 0 4 0z"/><path d="M51.14 37.97l8.8 1.6a2.003 2.003 0 1 0 .72-3.94l-8.8-1.6a2.003 2.003 0 1 0-.72 3.94"/><path d="M67.17 40.02l-.15 1.08.16-1.08-.15 1.08.16-1.08h-.13a7.77 7.77 0 0 1-1.91-.68 6.24 6.24 0 0 1-2.38-2 2.48 2.48 0 0 1-.48-1.35 2.08 2.08 0 0 1 .28-1 5.15 5.15 0 0 1 1.26-1.45 6.38 6.38 0 0 1 .58-.43l.16-.1-.6-1.05.6 1.05-.6-1.05.6 1.05a2.007 2.007 0 1 0-2-3.48 10.6 10.6 0 0 0-2.08 1.62 8.27 8.27 0 0 0-1.49 2 6.1 6.1 0 0 0-.76 2.89 6.41 6.41 0 0 0 1.16 3.57 10.47 10.47 0 0 0 4.55 3.68 11.08 11.08 0 0 0 2.64.78 2.018 2.018 0 0 0 .54-4z"/><path d="M38.4 21.2l.19-2s-.9-.09-2-.09a16.48 16.48 0 0 0-2.35.15 6.28 6.28 0 0 0-2.52.87h-.07a5.27 5.27 0 0 0-1.52 1.85 11.09 11.09 0 0 0-.97 2.72c-.18.76-.24 1.3-.25 1.35l2 .23-.76-1.85a11.78 11.78 0 0 0-2.55 1.51 8.19 8.19 0 0 0-1.84 1.94 5.48 5.48 0 0 0-.66 4.82 6.54 6.54 0 0 0 2.24 3.13 10.5 10.5 0 0 0 4.2 1.87 14 14 0 0 0 2.19.31l.07-2-1.8-.86a9.94 9.94 0 0 0-.53 1.33 9.77 9.77 0 0 0-.54 2.94 4.93 4.93 0 0 0 .57 2.37 3.86 3.86 0 0 0 1 1.12 4 4 0 0 0 1.36.71 12 12 0 0 0 3.54.49 17.34 17.34 0 0 0 4-.46l-.6-1.95-2-.22v.86a10.43 10.43 0 0 0 .59 3.48 7.5 7.5 0 0 0 1.15 2.12 7.08 7.08 0 0 0 2.06 1.82 18.3 18.3 0 0 0 3.79 1.42c1.06.27 1.79.38 1.85.39l.29-2-1.86.73a11 11 0 0 0 1.23 2.2 10.19 10.19 0 0 0 1.7 1.81 7.68 7.68 0 0 0 2.47 1.47l.67-1.88-.69 1.88a8.9 8.9 0 0 0 3.11.54 10 10 0 0 0 3.66-.68L58 53.8l-1.09 1.67a8.31 8.31 0 0 0 1.63.81 11 11 0 0 0 3.93.75 10.26 10.26 0 0 0 1.79-.16 5.45 5.45 0 0 0 2.71-1.32 6.11 6.11 0 0 0 1.76-3 8.05 8.05 0 0 0 .27-2.08v-.27l-2 .1-.33 2a12.49 12.49 0 0 0 2 .15 8.91 8.91 0 0 0 2.67-.36 5.18 5.18 0 0 0 1.47-.7 4 4 0 0 0 1.28-1.4l-1.75-1 1.74 1a7.86 7.86 0 0 0 1-3.89 9.39 9.39 0 0 0-.4-2.8l-1.9.61.7 1.87a9.76 9.76 0 0 0 2.6-1.53 8.07 8.07 0 0 0 1.87-2.13 6.48 6.48 0 0 0 .91-3.35 7.6 7.6 0 0 0-.24-1.86 11.68 11.68 0 0 0-3.72-5.83 11.1 11.1 0 0 0-2.71-1.78l-.8 1.83 1.76 1a15.28 15.28 0 0 0 .72-1.66 11.64 11.64 0 0 0 .72-3.77 6.64 6.64 0 0 0-1.26-4 8.39 8.39 0 0 0-3.75-3 9.68 9.68 0 0 0-3.65-.69 10.73 10.73 0 0 0-2.58.31l.54 1.93 1.61-1.18a28.54 28.54 0 0 0-1.9-2.27 18.76 18.76 0 0 0-1.93-1.82 7.54 7.54 0 0 0-2.47-1.39h-.06a8.61 8.61 0 0 0-2.21-.29 11.36 11.36 0 0 0-5.4 1.51 13.45 13.45 0 0 0-2.22 1.5l1.29 1.49.91-1.78a24.46 24.46 0 0 0-2.45-1.06 18.43 18.43 0 0 0-2.34-.74 11.36 11.36 0 0 0-2.64-.37 6.42 6.42 0 0 0-1 .07 10.12 10.12 0 0 0-3.57 1.22 6.39 6.39 0 0 0-2.67 3 5.23 5.23 0 0 0-.45 2v.07l2-.06.19-2-.19 2 2-.06h-1.52 1.53-1.52 1.52-.39.39a1.89 1.89 0 0 1 .38-.94 2.74 2.74 0 0 1 .88-.74 5.93 5.93 0 0 1 2-.65 2.21 2.21 0 0 1 .39 0 7.34 7.34 0 0 1 1.68.25 18 18 0 0 1 2.72.93l.9.4.24.12h.06a2 2 0 0 0 2.22-.27l-.49-.49.53.62-.53-.62.53.62a10.38 10.38 0 0 1 1.61-1.06 7.38 7.38 0 0 1 3.39-1 4.69 4.69 0 0 1 1.17.15l.52-1.91-.58 1.91a4.29 4.29 0 0 1 1.13.7 17.63 17.63 0 0 1 2.16 2.16c.3.35.55.66.72.88l.2.25v.07a2 2 0 0 0 2.15.75l-.31-1.09.3 1.09-.31-1.09.3 1.09h.1a7.74 7.74 0 0 1 1.41-.14 5.8 5.8 0 0 1 2.15.39 4.39 4.39 0 0 1 2 1.6 2.73 2.73 0 0 1 .43 1.57 7.65 7.65 0 0 1-.48 2.41c-.13.35-.26.64-.35.84s-.08.17-.1.22a2.05 2.05 0 0 0-.13 1.61 2 2 0 0 0 1.09 1.18v-.07.07-.07.07a8.33 8.33 0 0 1 1.89 1.31 7.64 7.64 0 0 1 2.29 3.68 3.15 3.15 0 0 1 .12.85 2.48 2.48 0 0 1-.36 1.32 4.65 4.65 0 0 1-1.5 1.46 6.22 6.22 0 0 1-.7.39l-.19.08.44 1.16-.43-1.16.44 1.16-.43-1.16a2 2 0 0 0-1.2 2.48l1-.33-1 .32 1-.33-1 .32v.12a5.9 5.9 0 0 1 .18 1.47 3.86 3.86 0 0 1-.43 1.98 1.62 1.62 0 0 1-.64.26 6.37 6.37 0 0 1-1.27.12h-1.35l-.11.74.12-.74-.11.74.12-.74a2 2 0 0 0-1.66.48 2 2 0 0 0-.67 1.59l1.25-.06h-1.25l1.25-.06h-1.25a4.08 4.08 0 0 1-.29 1.51 1.71 1.71 0 0 1-.43.65 1.34 1.34 0 0 1-.74.34 5.76 5.76 0 0 1-1.07.1 7 7 0 0 1-2.48-.48 7.11 7.11 0 0 1-.72-.32l-.16-.1-.39.62.41-.61-.39.62.41-.61a2 2 0 0 0-1.88-.17l.39.92-.37-.93.39.92-.37-.93a4.92 4.92 0 0 1-.63.19 6.59 6.59 0 0 1-1.49.18 4.89 4.89 0 0 1-1.73-.3 3.87 3.87 0 0 1-1.18-.72 7 7 0 0 1-1.43-1.53c-.15-.26-.27-.48-.34-.63l-.07-.16-1.15.46 1.15-.45-1.15.46 1.15-.45a2 2 0 0 0-1.57-1.25l-.06.4.07-.4-.06.4.07-.4a16.17 16.17 0 0 1-4.37-1.39L43.6 48l1-1.76a2.76 2.76 0 0 1-.89-.75 4 4 0 0 1-.72-1.61 6.87 6.87 0 0 1-.18-1.54v-.42l-1-.1 1 .11-1-.1 1 .11a2 2 0 0 0-2.49-2.16 13.18 13.18 0 0 1-3 .34 8.16 8.16 0 0 1-2.36-.31l-.1.14.14-.1-.1.14.14-.1-.08.06.09-.05-.08.06.09-.05a1 1 0 0 1-.06-.41 5.77 5.77 0 0 1 .27-1.8c.08-.26.18-.5.24-.65l.09-.15a2 2 0 0 0-.09-1.9 2 2 0 0 0-1.64-1v.46V34v.46V34a10.36 10.36 0 0 1-2.52-.5 5.7 5.7 0 0 1-1.6-.8 2.56 2.56 0 0 1-.85-1.18 1.65 1.65 0 0 1-.08-.49 1.58 1.58 0 0 1 .3-.9 5.47 5.47 0 0 1 1.56-1.43 7.82 7.82 0 0 1 .73-.41l.21-.1-.41-1 .4 1-.41-1 .4 1a2 2 0 0 0 1.23-1.62h-.45l.45.06h-.45l.45.06a10.09 10.09 0 0 1 .34-1.59 5.78 5.78 0 0 1 .43-1.08 1.94 1.94 0 0 1 .32-.46L32.8 21.8l1.11 1.66a3.72 3.72 0 0 1 .94-.24 13.55 13.55 0 0 1 1.71-.1h1.65a2 2 0 0 0 2.19-2z"/><path d="M48.65 20.26h.06-.06.06-.06a7.75 7.75 0 0 1 .29.9 6.25 6.25 0 0 1 .25 1.54 2.42 2.42 0 0 1-.05.48v.1a2.1 2.1 0 0 1-1 .69 4.67 4.67 0 0 1-1.54.23 6.66 6.66 0 0 1-1-.08l-.28-.05h-.06l-.25 1 .26-1-.25 1 .26-1a2.003 2.003 0 1 0-1 3.88 10.8 10.8 0 0 0 2.32.25 8.48 8.48 0 0 0 2.79-.44 6.09 6.09 0 0 0 2.87-2 4.3 4.3 0 0 0 .72-1.54 6.22 6.22 0 0 0 .21-1.52 10.44 10.44 0 0 0-.42-2.72 11.46 11.46 0 0 0-.42-1.28 2 2 0 1 0-3.7 1.52zm7.25 23.06a10.85 10.85 0 0 0-1.46-.09 8.7 8.7 0 0 0-2.33.29 5.24 5.24 0 0 0-1.34.56 4.28 4.28 0 0 0-1.27 1.12 11.73 11.73 0 0 0-2.5 5.4 2.011 2.011 0 0 0 4 .42l-1.18-.13 1.18.16-1.18-.13 1.18.16a8.34 8.34 0 0 1 1.7-3.42l.1-.08a2.1 2.1 0 0 1 .67-.21 5.22 5.22 0 0 1 1-.08 5.55 5.55 0 0 1 .65 0h.22l.16-1.11-.17 1.11.16-1.11-.17 1.11a2.022 2.022 0 1 0 .6-4zM45.32 30.17a14 14 0 0 0-1.08 1.67 11.84 11.84 0 0 0-.75 1.7 6.59 6.59 0 0 0-.39 2.16h2l-2-.09v.23a6.14 6.14 0 0 0 .52 2.4 10.35 10.35 0 0 0 2.5 3.3 2.002 2.002 0 1 0 2.56-3.08l-.68.82.69-.81-.68.82.69-.81-.1-.08a6.22 6.22 0 0 1-1-1.12 4.6 4.6 0 0 1-.42-.78 2 2 0 0 1-.13-.66v-.14a2.9 2.9 0 0 1 .17-.87 7.62 7.62 0 0 1 .76-1.54l.33-.51.1-.12-.13-.1.12.1-.13-.1.12.1a2 2 0 0 0-3.15-2.46zm-14.04 7.79a15.1 15.1 0 0 0 2.65.26 8.54 8.54 0 0 0 3.25-.58h.08a6.14 6.14 0 0 0 2-1.54 9.4 9.4 0 0 0 1.53-2.47 9.85 9.85 0 0 0 .46-1.28 2 2 0 1 0-3.86-1h.11-.11.11-.11a7.47 7.47 0 0 1-.57 1.34 4.57 4.57 0 0 1-.61.86 2 2 0 0 1-.65.51l.86 1.81-.82-1.91a4.79 4.79 0 0 1-1.69.26 11.22 11.22 0 0 1-1.31-.09l-.39-.07h-.11l-.11.5.11-.5-.11.5.11-.5a2.004 2.004 0 1 0-.84 3.92zm30.32 8.19a12.8 12.8 0 0 0 .71 1.85 10.87 10.87 0 0 0 .92 1.61 6.9 6.9 0 0 0 1.47 1.59 2 2 0 0 0 2.4-3.2 3 3 0 0 1-.61-.67 9 9 0 0 1-.8-1.53c-.09-.23-.16-.43-.21-.57v-.15h-.13.13-.13.13a2.012 2.012 0 0 0-3.88 1.07zM30.31 23.64a5.49 5.49 0 0 0-.26 1.66 5.15 5.15 0 0 0 .24 1.55 4.72 4.72 0 0 0 1.84 2.43 7.67 7.67 0 0 0 3.67 1.21 2.01 2.01 0 0 0 .4-4 4.94 4.94 0 0 1-1.45-.33c-.45-.2-.53-.34-.6-.45a.85.85 0 0 1-.1-.43 2.16 2.16 0 0 1 0-.31v-.06h-.13.13-.13.13l-1.22-.39 1.21.42-1.22-.39 1.21.42a2.002 2.002 0 1 0-3.78-1.32zm31.07-1.09a12.8 12.8 0 0 0 .71 1.85 10.87 10.87 0 0 0 .92 1.61 6.9 6.9 0 0 0 1.49 1.59 2 2 0 1 0 2.4-3.2 3 3 0 0 1-.61-.67 9 9 0 0 1-.8-1.53c-.09-.23-.16-.43-.21-.57l-.05-.15h-.13.13-.13.13a2 2 0 1 0-3.84 1.1z"/><path d="M64 18.82a10.85 10.85 0 0 0-1.46-.12 8.7 8.7 0 0 0-2.33.29 5.24 5.24 0 0 0-1.34.56 4.28 4.28 0 0 0-1.27 1.15 11.73 11.73 0 0 0-2.5 5.4 2.011 2.011 0 0 0 4 .42l-1.18-.12 1.18.15-1.18-.12 1.18.15a8.34 8.34 0 0 1 1.7-3.42l.1-.08a2 2 0 0 1 .67-.21 5.22 5.22 0 0 1 1-.08 5.55 5.55 0 0 1 .65 0h.22l.16-1.09-.17 1.11.17-1.11-.17 1.11a2.022 2.022 0 1 0 .6-4z"/></svg>