<svg xmlns="http://www.w3.org/2000/svg" viewBox="0 0 100 100"><path class="st0" d="M63.6 78H63v-4.8L57.8 68h-10l-8.3-8.3-4.3-1.4L24 60H6v20h17.2l14 14h25.2L86 83.3v-6.8l-7-5L63.6 78zM82 80.7L61.6 90H38.8l-14-14H10V64h14.1l10.7-1.6 2.5.8 8.8 8.8h10l2.8 2.8V78H44.8l-5.4-5.4-2.8 2.8 6.6 6.6h21.2l14-5.9 3.6 2.6v2z"/><path class="st0" d="M76.6 23.7l-10.1 3.4-5 5-2.1 9.2-3.4 3.6V30.6l5-8v-7L56.2 6h-4.5L47 15.5v7l5 8v14.4l-3.4-3.7-2.1-9.2-5-5-10.1-3.3-3.2 3.2L31.6 37l5 5 9.2 2.1 6.2 6.7V64h4V50.8l6.2-6.7 9.2-2.1 5-5 3.4-10.1-3.2-3.2zm-38 14.6l-3.5-3.5-2.1-6.3 6.4 2.1 3.5 3.5 1.3 5.5-5.6-1.3zM51 16.5l3-6 3 6v5l-3 4.8-3-4.8v-5zm21.9 18.3l-3.5 3.5-5.5 1.3 1.3-5.5 3.5-3.5 6.3-2.1-2.1 6.3z"/></svg>