<svg xmlns="http://www.w3.org/2000/svg" viewBox="0 0 94 86.8"><path d="M2 86.8h90a2 2 0 0 0 0-4H2a2 2 0 1 0 0 4"/><path d="M52.6 59.6v2h8v21.2h-6V59.6h-4v25.2a2 2 0 0 0 2 2h10a2 2 0 0 0 2-2V59.6a2 2 0 0 0-2-2h-10a2 2 0 0 0-2 2zM31.1 32.9v2h8v47.9h-6V32.9h-4v51.9a2 2 0 0 0 2 2h10a2 2 0 0 0 2-2V32.9a2 2 0 0 0-2-2h-10a2 2 0 0 0-2 2zM9.7 45.6v2h8v35.2h-6V45.6h-4v39.2a2 2 0 0 0 2 2h10a2 2 0 0 0 2-2V45.6a2 2 0 0 0-2-2h-10a2 2 0 0 0-2 2zM74 52.4v2h8v28.4h-6V52.4h-4v32.4a2 2 0 0 0 2 2h10a2 2 0 0 0 2-2V52.4a2 2 0 0 0-2-2H74a2 2 0 0 0-2 2zM63.16 26.92c3.8-1.1 7.61-2.2 11.44-3.41l-1.2-3.82c-3.77 1.19-7.56 2.29-11.36 3.39l1.12 3.84zM38.64 11.46c4.51 4.21 9.11 8.41 13.6 12.6l2.73-2.92c-4.52-4.21-9.12-8.41-13.61-12.6l-2.72 2.92zm-18.71 2c3.79-1.5 7.69-3 11.5-4.5l-1.46-3.72c-3.79 1.5-7.69 3-11.5 4.5l1.46 3.72z"/><path d="M14.5 20.6a7.1 7.1 0 1 0-7.1-7.1 7.11 7.11 0 0 0 7.1 7.1v-4a3.11 3.11 0 1 1 2.2-.91 3.09 3.09 0 0 1-2.19.91v4zm21.4-6.4a7.1 7.1 0 1 0-7.1-7.1 7.11 7.11 0 0 0 7.1 7.1v-4a3.11 3.11 0 1 1 2.19-.91 3.09 3.09 0 0 1-2.19.91v4zm21.3 19.2a7.1 7.1 0 1 0-7.1-7.1 7.11 7.11 0 0 0 7.1 7.1v-4a3.11 3.11 0 1 1 2.19-.91 3.09 3.09 0 0 1-2.19.91v4zm21.3-6.5a7.1 7.1 0 1 0-7.1-7.1 7.11 7.11 0 0 0 7.1 7.1v-4a3.11 3.11 0 1 1 2.2-.9 3.09 3.09 0 0 1-2.19.91v4z"/></svg>