<svg xmlns="http://www.w3.org/2000/svg" viewBox="0 0 100.18 98.81"><path d="M71.5 61.2l-1.14-1s-3.41-3.4-6.3-.61l-4.11 4.11s-2.8 2.8.61 6.3l5.94 5.6"/><path d="M72.9 59.72l-1.15-1-1.34 1.48 1.41-1.42a8.31 8.31 0 0 0-1.46-1.13 8.83 8.83 0 0 0-1.62-.85 6.31 6.31 0 0 0-2.12-.38 5.41 5.41 0 0 0-2 .39 6 6 0 0 0-1.92 1.28l-4.1 4.1a6 6 0 0 0-.87 1.18 6 6 0 0 0-.8 3 6.14 6.14 0 0 0 .53 2.46 8.53 8.53 0 0 0 1.72 2.49l.06.06 5.94 5.64a2 2 0 1 0 2.72-2.87l-6-5.65-1.37 1.46 1.43-1.4a4.57 4.57 0 0 1-.93-1.3 2 2 0 0 1 .09-1.87 2.68 2.68 0 0 1 .2-.29v-.06l-.71-.66.69.69-.71-.66.69.69 4.1-4.1-1.41-1.42 1.38 1.44a2.11 2.11 0 0 1 .65-.44 1.42 1.42 0 0 1 .53-.1 2.22 2.22 0 0 1 .76.15 4.15 4.15 0 0 1 1.14.63 3.34 3.34 0 0 1 .34.27l.08.07.07.06 1.14 1a2.018 2.018 0 1 0 2.7-3z"/><path d="M37 72v-2a33.22 33.22 0 0 1-12.83-2.54 33.08 33.08 0 0 1-10.48-7.07A34.48 34.48 0 0 1 6.63 49.9 32.25 32.25 0 0 1 4 37a31.43 31.43 0 0 1 2.63-12.79 33.08 33.08 0 0 1 7.07-10.48 34.48 34.48 0 0 1 10.5-7.1l-.8-1.83.77 1.84A33.32 33.32 0 0 1 37 4a31.43 31.43 0 0 1 12.79 2.63 33.08 33.08 0 0 1 10.48 7.07 34.48 34.48 0 0 1 7.1 10.5l1.83-.8-1.85.77A33.14 33.14 0 0 1 70 37a31.43 31.43 0 0 1-2.63 12.8 33.08 33.08 0 0 1-7.07 10.48 34.48 34.48 0 0 1-10.5 7.09A30.84 30.84 0 0 1 37 70v4a34.75 34.75 0 0 0 14.42-3l-.82-1.8.8 1.83a38 38 0 0 0 11.71-7.92 37.13 37.13 0 0 0 7.93-11.72l-1.84-.79 1.83.81a35.5 35.5 0 0 0 3-14.41 37.09 37.09 0 0 0-3-14.37 38 38 0 0 0-7.92-11.71 37.13 37.13 0 0 0-11.72-7.96L50.6 4.8l.81-1.83A35.5 35.5 0 0 0 37-.03a37.09 37.09 0 0 0-14.37 3 38 38 0 0 0-11.73 7.92 37.13 37.13 0 0 0-7.94 11.72l1.84.79-1.83-.81A35.5 35.5 0 0 0-.03 37a36.31 36.31 0 0 0 3 14.49 38 38 0 0 0 7.93 11.72 37.13 37.13 0 0 0 11.72 7.93A37 37 0 0 0 37 74z"/><path d="M58.6 34.1c-9.1 0-18.2-9.1-18.2-18.2 0 9.1-9.1 18.2-18.2 18.2 9.1 0 18.2 9.1 18.2 18.2 0-9.1 9.1-18.2 18.2-18.2z"/><path d="M58.6 34.1v-2a13.91 13.91 0 0 1-5.84-1.38 19.27 19.27 0 0 1-7.37-6.22 15.18 15.18 0 0 1-3-8.6 2 2 0 0 0-4 0 13.91 13.91 0 0 1-1.38 5.84 19.27 19.27 0 0 1-6.22 7.37 15.18 15.18 0 0 1-8.6 3 2 2 0 0 0 0 4 13.91 13.91 0 0 1 5.84 1.38 19.27 19.27 0 0 1 7.37 6.22 15.18 15.18 0 0 1 3 8.6 2 2 0 0 0 4 0 13.91 13.91 0 0 1 1.38-5.84A19.27 19.27 0 0 1 50 39.1a15.18 15.18 0 0 1 8.6-3 2 2 0 0 0 0-4 17.87 17.87 0 0 0-7.53 1.75 23.12 23.12 0 0 0-8.94 7.54A19 19 0 0 0 38.4 52.3a2 2 0 0 0 4 0 17.87 17.87 0 0 0-1.75-7.5 23.12 23.12 0 0 0-7.54-9 19 19 0 0 0-10.91-3.7 2 2 0 0 0 0 4 17.87 17.87 0 0 0 7.53-1.75 23.12 23.12 0 0 0 8.94-7.55 19 19 0 0 0 3.73-10.9 2 2 0 0 0-4 0 17.87 17.87 0 0 0 1.75 7.53 23.12 23.12 0 0 0 7.54 8.94A19 19 0 0 0 58.6 36.1a2 2 0 0 0 0-4zm19.11 40.38s.12-.36.3-1c.54-1.78 1.73-5.61 2.39-7.59a1.85 1.85 0 0 1 .64-1 1.19 1.19 0 0 1 .68-.18 1.71 1.71 0 0 1 .55.09 1.44 1.44 0 0 1 .79.53 1.48 1.48 0 0 1 .27.88 1.69 1.69 0 0 1-.09.57l-4.1 13.3a2 2 0 1 0 3.82 1.18l4.1-13.3a6 6 0 0 0 .27-1.77 5.4 5.4 0 0 0-3.9-5.25l-.53 1.96.63-1.9a5.87 5.87 0 0 0-1.81-.29 5.19 5.19 0 0 0-2.93.88 5.72 5.72 0 0 0-2.19 3.1l1.9.61-1.9-.63c-.91 2.75-2.7 8.64-2.7 8.65a2 2 0 0 0 3.82 1.16zm8.31-3l-.93-.42.92.45-.93-.42.92.45v-.06a2.6 2.6 0 0 1 .6-.68 1.54 1.54 0 0 1 .42-.26 1.5 1.5 0 0 1 .52-.1 2.21 2.21 0 0 1 .73.14.43.43 0 0 1 .19.1.61.61 0 0 1 .19.34 3.49 3.49 0 0 1 .12 1 12.17 12.17 0 0 1-.62 3.36l-.5 1.63c-.46 1.47-1.14 3.69-1.73 5.57-.3.94-.57 1.8-.78 2.43l-.24.79-.07.2 1.3.5-1.23-.59c-.05.1-.05.11-.05.12l1.3.5-1.25-.62-.1.25a7.05 7.05 0 0 1-2.69 3.7 7.47 7.47 0 0 1-4.28 1.21 11.89 11.89 0 0 1-3.54-.58 9.83 9.83 0 0 1-4.8-3.12 7.4 7.4 0 0 1-1.66-4.69 8.68 8.68 0 0 1 .22-1.88l-2-.43 1.9.63v-.11c.21-.65 1.53-5 2.9-9.42l2-6.34c.57-1.84 1-3.29 1.21-3.83a1.8 1.8 0 0 1 .71-1 1.51 1.51 0 0 1 .88-.27.69.69 0 0 1 .29 0h.13a3.5 3.5 0 0 1 1.12.5.75.75 0 0 1 .16.18.8.8 0 0 1 .05.33 2.28 2.28 0 0 1-.08.6 22.2 22.2 0 0 1-.65 2.25c0 .13-.07.15-.09.21l-.08.15c0 .08-.09.21-.14.34a2.002 2.002 0 0 0 3.8 1.26l-1-.35 1 .48v-.13l-1-.35 1 .48-.26-.04.25.12-.25-.12.25.12a2 2 0 0 0 .15-.28 18.79 18.79 0 0 0 1-3.09 6.54 6.54 0 0 0 .2-1.56 4.53 4.53 0 0 0-.48-2.12 4.78 4.78 0 0 0-1.89-2 8.07 8.07 0 0 0-1.78-.75l-.65 1.94.72-1.87a4.89 4.89 0 0 0-1.73-.3 5.56 5.56 0 0 0-3.11 1 5.85 5.85 0 0 0-2.29 3.11l1.91.61-1.9-.63c-.21.64-.68 2.14-1.29 4.08-.9 2.91-2.09 6.77-3.06 9.93-.48 1.58-.92 3-1.23 4l-.38 1.22c0 .15-.08.27-.1.35v.09l1.17.38-1.21-.37 1.17.38-1.17-.38v.2a12.05 12.05 0 0 0-.31 2.71 11.41 11.41 0 0 0 2.54 7.2 14 14 0 0 0 6.72 4.43 15.85 15.85 0 0 0 4.74.76 11.58 11.58 0 0 0 6.53-1.9 11.09 11.09 0 0 0 4.22-5.73l-1.94-.67 1.79.89c.07-.14.08-.18.11-.25s.16-.45.28-.83c.84-2.56 3.13-10 3.13-10a16 16 0 0 0 .8-4.56 6.55 6.55 0 0 0-.61-2.95 4.41 4.41 0 0 0-2.71-2.3l-.59 1.9.63-1.9a6.5 6.5 0 0 0-2-.34 5.44 5.44 0 0 0-2.4.56 6.14 6.14 0 0 0-2.08 1.78 5.74 5.74 0 0 0-.67 1.1 2 2 0 0 0 3.64 1.64z"/><path d="M83.3 91.8l3.4 3.3s3.4 3.4 6.3.6l4.1-4.1s2.8-2.8-.6-6.3l-6.4-6.2"/><path d="M81.9 93.24l3.4 3.29 1.4-1.43-1.41 1.41a8.83 8.83 0 0 0 1.45 1.14 8.31 8.31 0 0 0 1.58.77 6.2 6.2 0 0 0 2.11.39 5.35 5.35 0 0 0 2-.4 6 6 0 0 0 1.93-1.27l4.1-4.1a5.37 5.37 0 0 0 .87-1.17 6 6 0 0 0 .28-5.45 8.34 8.34 0 0 0-1.71-2.51l-6.4-6.2a2.001 2.001 0 0 0-2.78 2.88l6.4 6.2 1.38-1.49-1.43 1.39a4.56 4.56 0 0 1 .92 1.3 2.1 2.1 0 0 1 .19.86 2 2 0 0 1-.28 1 2.34 2.34 0 0 1-.19.3l.72.67-.69-.69.72.67-.69-.69-4.1 4.1L93 95.7l-1.39-1.44a1.94 1.94 0 0 1-.65.44 1.23 1.23 0 0 1-.53.11 2.32 2.32 0 0 1-.76-.15 5 5 0 0 1-1.14-.63l-.34-.23-.07-.07-3.4-3.3a2 2 0 0 0-2.82 2.81z"/></svg>