<svg xmlns="http://www.w3.org/2000/svg" viewBox="0 0 93.21 91.5"><path d="M44.5 49.6v39.9a2 2 0 0 0 4 0V49.6a2 2 0 0 0-4 0"/><path d="M44.73 58.5l15 22.7A2.012 2.012 0 1 0 63.1 79l-15-22.7a2 2 0 0 0-3.34 2.2"/><path d="M45.03 56.3l-15 22.7a2 2 0 0 0 3.34 2.2l15-22.7a2 2 0 1 0-3.34-2.2m-23.3 1.2l-8.9 4.3a.7.7 0 0 1-.31.09 2.77 2.77 0 0 1-1.07-.31 9.14 9.14 0 0 1-2.73-2.16 18.84 18.84 0 0 1-2.91-4.32L4 56l1.8-.87a17.3 17.3 0 0 1-1.8-7 6.3 6.3 0 0 1 .23-1.73 2 2 0 0 1 .29-.64.56.56 0 0 1 .23-.22l9.6-4.6a2 2 0 0 0-1.72-3.6l-9.6 4.6h.07a4.69 4.69 0 0 0-1.8 1.52A6.9 6.9 0 0 0 .24 46.1a10.75 10.75 0 0 0-.19 2 21.09 21.09 0 0 0 2.2 8.77 21.26 21.26 0 0 0 4.83 6.51 11.61 11.61 0 0 0 2.63 1.82 6.43 6.43 0 0 0 2.79.7 4.64 4.64 0 0 0 2.09-.51l-.89-1.79.87 1.8 8.9-4.3a2 2 0 1 0-1.74-3.6z"/><path d="M57.91 41.61l-30.5 15.2a1.39 1.39 0 0 1-.51.09 3.6 3.6 0 0 1-1.39-.37 10.94 10.94 0 0 1-3.31-2.54 21.49 21.49 0 0 1-3.5-5.26 19.69 19.69 0 0 1-2.13-8.2 7.22 7.22 0 0 1 .46-2.76 2.58 2.58 0 0 1 .41-.7 1.18 1.18 0 0 1 .35-.29l31.2-15.7a2.004 2.004 0 0 0-1.8-3.58L16 33.2a5 5 0 0 0-1.61 1.28A7 7 0 0 0 13 37.2a12.14 12.14 0 0 0-.43 3.33 23.41 23.41 0 0 0 2.53 9.93 23.53 23.53 0 0 0 5.69 7.74 13.34 13.34 0 0 0 3.06 2 7.41 7.41 0 0 0 3.05.73 5.12 5.12 0 0 0 2.29-.51l30.5-15.22a2 2 0 0 0-1.78-3.58z"/><path d="M87.59 32.82l-21.2 10.8a2.59 2.59 0 0 1-1.11.29 5.77 5.77 0 0 1-2.33-.63 16.24 16.24 0 0 1-4.85-3.79 30.58 30.58 0 0 1-4.8-7.29 27.77 27.77 0 0 1-3-11.39v-.41a11.16 11.16 0 0 1 .49-3.36 5.24 5.24 0 0 1 .71-1.4 2.85 2.85 0 0 1 1-.85l21-10.59A2.004 2.004 0 0 0 71.7.62l-21 10.58a6.79 6.79 0 0 0-2.41 2 9.93 9.93 0 0 0-1.65 3.79 16.13 16.13 0 0 0-.35 3.37h2l-2-.05v.5a31.45 31.45 0 0 0 3.41 13.15 32.4 32.4 0 0 0 7.5 10.24 18.19 18.19 0 0 0 4.06 2.73 9.49 9.49 0 0 0 4 1 6.53 6.53 0 0 0 2.93-.73l21.2-10.8a2 2 0 1 0-1.82-3.56z"/><path d="M87.9 35l-.9-1.8a2.64 2.64 0 0 1-1.1.19 5.77 5.77 0 0 1-2.33-.63 16.24 16.24 0 0 1-4.83-3.78 30.58 30.58 0 0 1-4.84-7.27 27.91 27.91 0 0 1-3-11.5V9.12a9.72 9.72 0 0 1 .57-2.92 4.71 4.71 0 0 1 .68-1.2 2.39 2.39 0 0 1 .89-.7A2.59 2.59 0 0 1 74.2 4a5.77 5.77 0 0 1 2.33.63 16.24 16.24 0 0 1 4.83 3.78 30.58 30.58 0 0 1 4.84 7.27 28.36 28.36 0 0 1 3 11.73 10.18 10.18 0 0 1-.67 4 4 4 0 0 1-.7 1.17 2.66 2.66 0 0 1-.83.66l.9 1.79.89 1.79a6.71 6.71 0 0 0 2.07-1.62 9 9 0 0 0 1.81-3.5 15.83 15.83 0 0 0 .54-4.28 32.24 32.24 0 0 0-3.4-13.45A32.4 32.4 0 0 0 82.3 3.74a18.19 18.19 0 0 0-4.06-2.73 9.49 9.49 0 0 0-4-1 6.53 6.53 0 0 0-2.89.71l.85 1.78-.84-1.82a6.57 6.57 0 0 0-2.26 1.81 9.34 9.34 0 0 0-1.68 3.41 15.17 15.17 0 0 0-.47 3l2 .11-2-.15c0 .46-.06.92-.06 1.39a31.58 31.58 0 0 0 3.41 13.21 32.4 32.4 0 0 0 7.5 10.18 18.19 18.19 0 0 0 4.06 2.73 9.49 9.49 0 0 0 4 1 6.37 6.37 0 0 0 2.9-.61z"/></svg>