<svg xmlns="http://www.w3.org/2000/svg" viewBox="0 0 81.7 92"><path d="M51.4 20h2V9a3.14 3.14 0 0 0-.34-1.39 2.82 2.82 0 0 0-1-1.12A3 3 0 0 0 50.4 6H39.7v2l2-.12a8.8 8.8 0 0 0-2.35-5.54A7.43 7.43 0 0 0 34 0a7.33 7.33 0 0 0-5.36 2.4 8.92 8.92 0 0 0-2.34 5.57l2 .12v-2H17.6a3.14 3.14 0 0 0-1.39.34 2.91 2.91 0 0 0-1.12 1 3 3 0 0 0-.49 1.69v11a3.14 3.14 0 0 0 .34 1.39 2.91 2.91 0 0 0 1 1.12 3 3 0 0 0 1.69.49h33.5l.58-.58-1.34-1.35.77 1.74a1.66 1.66 0 0 0 .57-.39l-1.34-1.35.77 1.74-.64-1.45.5 1.49.16-.06-.64-1.45.48 1.51-.27-.85.25.86-.27-.85.25.86c.07 0 .24-.06.47-.14a3.08 3.08 0 0 0 1.25-.87 2.71 2.71 0 0 0 .52-.91 2.94 2.94 0 0 0 .18-1h-3l-.8-.53a1 1 0 0 0-.18.53h1l-.8-.53.91.6-.6-.91a1.12 1.12 0 0 0-.31.31l.91.6-.6-.91.4.61-.31-.75-.12.07.4.61-.28-.68.1.25-.1-.25.1.25-.1-.25h-.12l-.24.07-.27.12a2 2 0 0 0-.51.37l1.44 1.45v-2H17.6v1l.53-.8a1 1 0 0 0-.53-.18v1l.53-.8-.63.95 1-.62a1.14 1.14 0 0 0-.33-.33l-.63.95 1-.62-.72.46.85-.16a1 1 0 0 0-.13-.3l-.72.46.85-.16-1 .19h1a1 1 0 0 0 0-.19l-1 .19h1v-11h-1l.8.53a1 1 0 0 0 .18-.53h-1l.8.53-1-.63.62 1a1.14 1.14 0 0 0 .33-.33l-1-.63.62 1-.46-.72.16.85a1 1 0 0 0 .3-.13l-.46-.72.16.85-.19-1v1h.19l-.19-1v1h12.66l.11-1.88a5 5 0 0 1 1.26-3.08 3.22 3.22 0 0 1 4.89 0 4.72 4.72 0 0 1 1.25 3l.11 1.88H50.4v-1l-.53.8a1 1 0 0 0 .53.18v-1l-.53.8.63-.95-1 .62a1.14 1.14 0 0 0 .33.33l.63-.95-1 .62.72-.46-.84.16a.7.7 0 0 0 .12.3l.72-.46-.84.16 1-.19h-1a.53.53 0 0 0 0 .19l1-.19h-1v11z"/><path d="M17.5 13.4H8a9.37 9.37 0 0 0-3.89 1 7.3 7.3 0 0 0-2.84 2.46A8.14 8.14 0 0 0 0 21.4V84a9.37 9.37 0 0 0 1 3.89 7.3 7.3 0 0 0 2.46 2.84A8.14 8.14 0 0 0 8 92h52a9.37 9.37 0 0 0 3.89-1 7.3 7.3 0 0 0 2.84-2.46A8.14 8.14 0 0 0 68 84V56.1h-4V84a4.13 4.13 0 0 1-.6 2.4 3.12 3.12 0 0 1-.92.89 4.76 4.76 0 0 1-1.71.65 5.29 5.29 0 0 1-.61.09H8a4.13 4.13 0 0 1-2.36-.6 3.12 3.12 0 0 1-.89-.92 4.76 4.76 0 0 1-.65-1.71 5.29 5.29 0 0 1-.09-.61v-.18H3.2 4h-.81H4V21.4a4.13 4.13 0 0 1 .6-2.36 3.12 3.12 0 0 1 .92-.89 4.76 4.76 0 0 1 1.71-.65 5.29 5.29 0 0 1 .61-.09h9.66V13.4zM68 42V21.4a9.37 9.37 0 0 0-1-3.89 7.3 7.3 0 0 0-2.46-2.84A8.14 8.14 0 0 0 60 13.4h-7.4v4H60a4.13 4.13 0 0 1 2.36.6 3.12 3.12 0 0 1 .89.92 4.76 4.76 0 0 1 .65 1.71 5.29 5.29 0 0 1 .09.61V42z"/><path d="M22.3 38.5H57a2 2 0 0 0 0-4H22.3a2 2 0 0 0 0 4m-8.9-4v2-4a4 4 0 1 0 4 4 4 4 0 0 0-4-4zm8.9 45.2h14.4a2 2 0 0 0 0-4H22.3a2 2 0 0 0 0 4m-8.9-4v2-4a4 4 0 1 0 4 4 4 4 0 0 0-4-4zm8.9-16.6h26.3a2 2 0 0 0 0-4H22.3a2 2 0 0 0 0 4zm-8.9-4v2-4a4 4 0 1 0 4 4 4 4 0 0 0-4-4z"/><path d="M70.9 36.3l-1.41-1.41-5.3 5.3-22.4 22.3a2 2 0 0 0-.59 1.42 2 2 0 0 0 .59 1.41l.1.1a2 2 0 0 0 2.34.36 2.74 2.74 0 0 1 1.3-.31 3.85 3.85 0 0 1 2.66 1.15 3.93 3.93 0 0 1 1.19 2.66 2.44 2.44 0 0 1-.31 1.23 2 2 0 0 0 .32 2.41l.1.1a2 2 0 0 0 2.82 0L80 45.31l.08-.08a6.42 6.42 0 0 0 1.61-4.31 7.83 7.83 0 0 0-2.38-5.52l-.07-.07a8.1 8.1 0 0 0-5.37-2.14 6.24 6.24 0 0 0-4.34 1.67l1.37 1.44 1.37 1.45a2.3 2.3 0 0 1 1.6-.57 4.17 4.17 0 0 1 2.69 1.1l1.34-1.48-1.41 1.41a4 4 0 0 1 1.21 2.71 2.43 2.43 0 0 1-.59 1.65l1.49 1.33-1.41-1.41-27.7 27.7 1.41 1.41 1.41-1.41-.1-.1-1.41 1.41 1.73 1a6.42 6.42 0 0 0 .85-3.23A7.77 7.77 0 0 0 51 63.79a7.81 7.81 0 0 0-5.48-2.33 6.8 6.8 0 0 0-3.16.77l.93 1.77 1.41-1.41-.1-.1-1.4 1.41 1.41 1.42L67 43.02l5.3-5.3-1.4-1.42 1.37 1.45z"/><path d="M41.29 63.32l-3.41 11.3a2 2 0 0 0 2.52 2.49l11.2-3.5a2.002 2.002 0 1 0-1.2-3.82l-7.6 2.38 2.32-7.69a2 2 0 1 0-3.83-1.16zm32.02-11.31a6.31 6.31 0 0 0 1.81-4.55 7.73 7.73 0 0 0-2.31-5.47 7.58 7.58 0 0 0-5.34-2.35 6 6 0 0 0-4.42 1.88A2.02 2.02 0 0 0 66 44.28a2 2 0 0 1 1.52-.64A3.69 3.69 0 0 1 70 44.81a3.81 3.81 0 0 1 1.13 2.65 2.42 2.42 0 0 1-.63 1.73 2 2 0 0 0 2.82 2.82z"/></svg>