<svg xmlns="http://www.w3.org/2000/svg" viewBox="0 0 94.4 88"><path d="M2.5 2.5V5h12v9.5H5v-12H0V17a2.49 2.49 0 0 0 2.5 2.5H17a2.49 2.49 0 0 0 2.5-2.5V2.5A2.49 2.49 0 0 0 17 0H2.5A2.49 2.49 0 0 0 0 2.5zm82.1 83V88a9.78 9.78 0 1 0-6.91-2.84A9.79 9.79 0 0 0 84.6 88v-5a4.78 4.78 0 1 1 3.4-1.39A4.79 4.79 0 0 1 84.6 83zm-51-39.1h38.6a13.18 13.18 0 0 0 13.1-13.1V20.9A13.18 13.18 0 0 0 72.2 7.8H23.5a2.5 2.5 0 0 0 0 5h48.7a8.16 8.16 0 0 1 8.1 8.1v12.4a8.16 8.16 0 0 1-8.1 8.1H33.6a2.5 2.5 0 0 0 0 5z"/><path d="M54.5 41.4H15.9A13.18 13.18 0 0 0 2.8 54.5v12.4A13.18 13.18 0 0 0 15.9 80h43.3a2.5 2.5 0 0 0 0-5H15.9a8.16 8.16 0 0 1-8.1-8.1V54.5a8.16 8.16 0 0 1 8.1-8.1h38.6a2.5 2.5 0 0 0 0-5z"/><path d="M60.7 85.4l.9 1.2 9.5-7.1a1.5 1.5 0 0 0 0-2.4L61.6 70a1.5 1.5 0 0 0-2.4 1.2v14.2a1.5 1.5 0 0 0 2.4 1.2l-.9-1.2h1.5V74.19l5.49 4.11-7.89 5.9.9 1.2z"/></svg>