<svg data-name="Layer 1" xmlns="http://www.w3.org/2000/svg" viewBox="0 0 29.21 40"><path class="cls-1" d="M22.93 26.58a14.61 14.61 0 1 0-16.64 0l.21.16a3.56 3.56 0 0 1 1.56 1.67 9.39 9.39 0 0 1 .27 2.79v2.78a3 3 0 0 0 2.25 2.9 4.16 4.16 0 0 0 8.05 0 3 3 0 0 0 2.26-2.9v-3a8.6 8.6 0 0 1 .16-2.36c.27-.86 1-1.35 1.88-2m-1.13-7.88a.72.72 0 0 0-.43.7v2.09H8.81v-4a.76.76 0 0 0-.43-.7.74.74 0 0 0-.81.16 1.09 1.09 0 0 1-.8.32 1.18 1.18 0 0 1 0-2.36 1.09 1.09 0 0 1 .8.32.74.74 0 0 0 .81.16.72.72 0 0 0 .43-.7v-4.37h5.8a.8.8 0 0 0 .7-.42.76.76 0 0 0-.17-.81 1.12 1.12 0 0 1-.32-.81A1.14 1.14 0 0 1 16 7.2a1.18 1.18 0 0 1 1.19 1.12 1.09 1.09 0 0 1-.33.81.76.76 0 0 0-.16.81.73.73 0 0 0 .7.42h4.1v6.29a.76.76 0 0 0 .43.69.74.74 0 0 0 .81-.16 1.09 1.09 0 0 1 .8-.32 1.18 1.18 0 0 1 0 2.36 1.06 1.06 0 0 1-.8-.32 1 1 0 0 0-.94-.16zM14.61 1.51a13.17 13.17 0 0 1 6.76 1.87v5.6H18.5a2.32 2.32 0 0 0 0-.59 2.63 2.63 0 0 0-5.26 0 2.13 2.13 0 0 0 .05.59H2.8a13 13 0 0 1 11.81-7.47zm-12.41 9h5.16v3.12a2 2 0 0 0-.59-.06 2.63 2.63 0 1 0 0 5.26 2.17 2.17 0 0 0 .59 0v2.79H3.5a13 13 0 0 1-2-6.92 13.41 13.41 0 0 1 .7-4.23zm7.63 21.85v-1h9.61v1.35H9.83zm4.78 6.23a2.67 2.67 0 0 1-2.42-1.61h4.83a2.53 2.53 0 0 1-2.41 1.57zm3.27-3h-6.49a1.58 1.58 0 0 1-1.56-1.45h9.61a1.58 1.58 0 0 1-1.56 1.41zM7.14 25.4a12.34 12.34 0 0 1-2.57-2.42h16.8v2.9a4.59 4.59 0 0 0-1.72 2.2 8.78 8.78 0 0 0-.26 1.67H9.83a7.25 7.25 0 0 0-.33-1.88 5 5 0 0 0-2.1-2.36l-.27-.11m15.68-.54v-4.19a2 2 0 0 0 .59.06 2.63 2.63 0 0 0 0-5.26 2.17 2.17 0 0 0-.59 0V4.4a13 13 0 0 1 4.89 10.21 12.92 12.92 0 0 1-4.88 10.25z"/></svg>